G04 Layer: BottomLayer*
G04 EasyEDA v6.4.3, 2020-09-28T11:24:18+02:00*
G04 db6a862be2b4476fa8aa916105e7e4dd,b5629027151c44a780a78c7d9cec2130,10*
G04 Gerber Generator version 0.2*
G04 Scale: 100 percent, Rotated: No, Reflected: No *
G04 Dimensions in inches *
G04 leading zeros omitted , absolute positions ,2 integer and 4 decimal *
%FSLAX24Y24*%
%MOIN*%
G90*
G70D02*

%ADD17R,0.047700X0.085900*%
%ADD18C,0.060000*%
%ADD19R,0.080000X0.080000*%
%ADD20C,0.080000*%
%ADD22C,0.070866*%

%LPD*%
G36*
G01X18864Y11898D02*
G01X135Y11898D01*
G01X129Y11897D01*
G01X124Y11895D01*
G01X114Y11889D01*
G01X110Y11885D01*
G01X104Y11875D01*
G01X102Y11870D01*
G01X101Y11864D01*
G01X101Y135D01*
G01X102Y129D01*
G01X104Y124D01*
G01X110Y114D01*
G01X114Y110D01*
G01X124Y104D01*
G01X129Y102D01*
G01X135Y101D01*
G01X18864Y101D01*
G01X18870Y102D01*
G01X18875Y104D01*
G01X18885Y110D01*
G01X18889Y114D01*
G01X18895Y124D01*
G01X18897Y129D01*
G01X18898Y135D01*
G01X18898Y11864D01*
G01X18897Y11870D01*
G01X18895Y11875D01*
G01X18889Y11885D01*
G01X18885Y11889D01*
G01X18875Y11895D01*
G01X18870Y11897D01*
G01X18864Y11898D01*
G37*

%LPC*%
G36*
G01X9192Y11351D02*
G01X9175Y11360D01*
G01X9175Y11175D01*
G01X9360Y11175D01*
G01X9352Y11192D01*
G01X9332Y11224D01*
G01X9321Y11240D01*
G01X9309Y11255D01*
G01X9283Y11283D01*
G01X9255Y11309D01*
G01X9240Y11321D01*
G01X9224Y11332D01*
G01X9208Y11342D01*
G01X9192Y11351D01*
G37*
G36*
G01X2017Y1350D02*
G01X2000Y1351D01*
G01X1982Y1350D01*
G01X1963Y1349D01*
G01X1946Y1347D01*
G01X1928Y1344D01*
G01X1910Y1340D01*
G01X1893Y1336D01*
G01X1876Y1331D01*
G01X1859Y1325D01*
G01X1842Y1318D01*
G01X1826Y1311D01*
G01X1809Y1303D01*
G01X1794Y1294D01*
G01X1778Y1284D01*
G01X1764Y1274D01*
G01X1750Y1263D01*
G01X1722Y1239D01*
G01X1710Y1227D01*
G01X1698Y1213D01*
G01X1686Y1200D01*
G01X1675Y1185D01*
G01X1665Y1171D01*
G01X1655Y1155D01*
G01X1646Y1140D01*
G01X1638Y1123D01*
G01X1631Y1107D01*
G01X1624Y1090D01*
G01X1618Y1073D01*
G01X1613Y1056D01*
G01X1609Y1039D01*
G01X1605Y1021D01*
G01X1602Y1003D01*
G01X1600Y986D01*
G01X1599Y967D01*
G01X1598Y950D01*
G01X1599Y932D01*
G01X1600Y913D01*
G01X1602Y896D01*
G01X1605Y878D01*
G01X1609Y860D01*
G01X1613Y843D01*
G01X1618Y826D01*
G01X1624Y809D01*
G01X1631Y792D01*
G01X1638Y776D01*
G01X1646Y759D01*
G01X1655Y744D01*
G01X1665Y728D01*
G01X1675Y714D01*
G01X1686Y700D01*
G01X1710Y672D01*
G01X1722Y660D01*
G01X1750Y636D01*
G01X1764Y625D01*
G01X1778Y615D01*
G01X1794Y605D01*
G01X1809Y596D01*
G01X1826Y588D01*
G01X1842Y581D01*
G01X1859Y574D01*
G01X1876Y568D01*
G01X1893Y563D01*
G01X1910Y559D01*
G01X1928Y555D01*
G01X1946Y552D01*
G01X1963Y550D01*
G01X1982Y549D01*
G01X2000Y548D01*
G01X2017Y549D01*
G01X2036Y550D01*
G01X2053Y552D01*
G01X2071Y555D01*
G01X2089Y559D01*
G01X2106Y563D01*
G01X2123Y568D01*
G01X2140Y574D01*
G01X2157Y581D01*
G01X2173Y588D01*
G01X2190Y596D01*
G01X2205Y605D01*
G01X2221Y615D01*
G01X2235Y625D01*
G01X2250Y636D01*
G01X2263Y648D01*
G01X2277Y660D01*
G01X2289Y672D01*
G01X2313Y700D01*
G01X2324Y714D01*
G01X2334Y728D01*
G01X2344Y744D01*
G01X2353Y759D01*
G01X2361Y776D01*
G01X2368Y792D01*
G01X2375Y809D01*
G01X2381Y826D01*
G01X2386Y843D01*
G01X2390Y860D01*
G01X2394Y878D01*
G01X2397Y896D01*
G01X2399Y913D01*
G01X2400Y932D01*
G01X2401Y950D01*
G01X2400Y967D01*
G01X2399Y986D01*
G01X2397Y1003D01*
G01X2394Y1021D01*
G01X2390Y1039D01*
G01X2386Y1056D01*
G01X2381Y1073D01*
G01X2375Y1090D01*
G01X2368Y1107D01*
G01X2361Y1123D01*
G01X2353Y1140D01*
G01X2344Y1155D01*
G01X2334Y1171D01*
G01X2324Y1185D01*
G01X2313Y1200D01*
G01X2301Y1213D01*
G01X2289Y1227D01*
G01X2277Y1239D01*
G01X2263Y1251D01*
G01X2250Y1263D01*
G01X2235Y1274D01*
G01X2221Y1284D01*
G01X2205Y1294D01*
G01X2190Y1303D01*
G01X2173Y1311D01*
G01X2157Y1318D01*
G01X2140Y1325D01*
G01X2123Y1331D01*
G01X2106Y1336D01*
G01X2089Y1340D01*
G01X2071Y1344D01*
G01X2053Y1347D01*
G01X2036Y1349D01*
G01X2017Y1350D01*
G37*
G36*
G01X6018Y1350D02*
G01X6000Y1351D01*
G01X5981Y1350D01*
G01X5964Y1349D01*
G01X5946Y1347D01*
G01X5928Y1344D01*
G01X5910Y1340D01*
G01X5893Y1336D01*
G01X5876Y1331D01*
G01X5859Y1325D01*
G01X5842Y1318D01*
G01X5826Y1311D01*
G01X5810Y1303D01*
G01X5794Y1294D01*
G01X5778Y1284D01*
G01X5764Y1274D01*
G01X5750Y1263D01*
G01X5722Y1239D01*
G01X5710Y1227D01*
G01X5697Y1213D01*
G01X5686Y1200D01*
G01X5675Y1185D01*
G01X5665Y1171D01*
G01X5655Y1155D01*
G01X5646Y1140D01*
G01X5638Y1123D01*
G01X5631Y1107D01*
G01X5624Y1090D01*
G01X5618Y1073D01*
G01X5613Y1056D01*
G01X5609Y1039D01*
G01X5605Y1021D01*
G01X5602Y1003D01*
G01X5600Y986D01*
G01X5599Y967D01*
G01X5598Y950D01*
G01X5599Y932D01*
G01X5600Y913D01*
G01X5602Y896D01*
G01X5605Y878D01*
G01X5609Y860D01*
G01X5613Y843D01*
G01X5618Y826D01*
G01X5624Y809D01*
G01X5631Y792D01*
G01X5638Y776D01*
G01X5646Y759D01*
G01X5655Y744D01*
G01X5665Y728D01*
G01X5675Y714D01*
G01X5697Y686D01*
G01X5710Y672D01*
G01X5722Y660D01*
G01X5750Y636D01*
G01X5764Y625D01*
G01X5778Y615D01*
G01X5794Y605D01*
G01X5810Y596D01*
G01X5826Y588D01*
G01X5842Y581D01*
G01X5859Y574D01*
G01X5876Y568D01*
G01X5893Y563D01*
G01X5910Y559D01*
G01X5928Y555D01*
G01X5946Y552D01*
G01X5964Y550D01*
G01X5981Y549D01*
G01X6000Y548D01*
G01X6018Y549D01*
G01X6035Y550D01*
G01X6053Y552D01*
G01X6071Y555D01*
G01X6089Y559D01*
G01X6106Y563D01*
G01X6123Y568D01*
G01X6140Y574D01*
G01X6157Y581D01*
G01X6173Y588D01*
G01X6189Y596D01*
G01X6205Y605D01*
G01X6221Y615D01*
G01X6235Y625D01*
G01X6250Y636D01*
G01X6263Y648D01*
G01X6277Y660D01*
G01X6289Y672D01*
G01X6302Y686D01*
G01X6324Y714D01*
G01X6334Y728D01*
G01X6344Y744D01*
G01X6353Y759D01*
G01X6361Y776D01*
G01X6368Y792D01*
G01X6375Y809D01*
G01X6381Y826D01*
G01X6386Y843D01*
G01X6390Y860D01*
G01X6394Y878D01*
G01X6397Y896D01*
G01X6399Y913D01*
G01X6400Y932D01*
G01X6401Y950D01*
G01X6400Y967D01*
G01X6399Y986D01*
G01X6397Y1003D01*
G01X6394Y1021D01*
G01X6390Y1039D01*
G01X6386Y1056D01*
G01X6381Y1073D01*
G01X6375Y1090D01*
G01X6368Y1107D01*
G01X6361Y1123D01*
G01X6353Y1140D01*
G01X6344Y1155D01*
G01X6334Y1171D01*
G01X6324Y1185D01*
G01X6313Y1200D01*
G01X6302Y1213D01*
G01X6289Y1227D01*
G01X6277Y1239D01*
G01X6263Y1251D01*
G01X6250Y1263D01*
G01X6235Y1274D01*
G01X6221Y1284D01*
G01X6205Y1294D01*
G01X6189Y1303D01*
G01X6173Y1311D01*
G01X6157Y1318D01*
G01X6140Y1325D01*
G01X6123Y1331D01*
G01X6106Y1336D01*
G01X6089Y1340D01*
G01X6071Y1344D01*
G01X6053Y1347D01*
G01X6035Y1349D01*
G01X6018Y1350D01*
G37*
G36*
G01X8018Y1350D02*
G01X8000Y1351D01*
G01X7981Y1350D01*
G01X7964Y1349D01*
G01X7946Y1347D01*
G01X7928Y1344D01*
G01X7910Y1340D01*
G01X7893Y1336D01*
G01X7876Y1331D01*
G01X7859Y1325D01*
G01X7842Y1318D01*
G01X7826Y1311D01*
G01X7810Y1303D01*
G01X7794Y1294D01*
G01X7778Y1284D01*
G01X7764Y1274D01*
G01X7750Y1263D01*
G01X7722Y1239D01*
G01X7710Y1227D01*
G01X7697Y1213D01*
G01X7686Y1200D01*
G01X7675Y1185D01*
G01X7665Y1171D01*
G01X7655Y1155D01*
G01X7646Y1140D01*
G01X7638Y1123D01*
G01X7631Y1107D01*
G01X7624Y1090D01*
G01X7618Y1073D01*
G01X7613Y1056D01*
G01X7609Y1039D01*
G01X7605Y1021D01*
G01X7602Y1003D01*
G01X7600Y986D01*
G01X7599Y967D01*
G01X7598Y950D01*
G01X7599Y932D01*
G01X7600Y913D01*
G01X7602Y896D01*
G01X7605Y878D01*
G01X7609Y860D01*
G01X7613Y843D01*
G01X7618Y826D01*
G01X7624Y809D01*
G01X7631Y792D01*
G01X7638Y776D01*
G01X7646Y759D01*
G01X7655Y744D01*
G01X7665Y728D01*
G01X7675Y714D01*
G01X7697Y686D01*
G01X7710Y672D01*
G01X7722Y660D01*
G01X7750Y636D01*
G01X7764Y625D01*
G01X7778Y615D01*
G01X7794Y605D01*
G01X7810Y596D01*
G01X7826Y588D01*
G01X7842Y581D01*
G01X7859Y574D01*
G01X7876Y568D01*
G01X7893Y563D01*
G01X7910Y559D01*
G01X7928Y555D01*
G01X7946Y552D01*
G01X7964Y550D01*
G01X7981Y549D01*
G01X8000Y548D01*
G01X8018Y549D01*
G01X8035Y550D01*
G01X8053Y552D01*
G01X8071Y555D01*
G01X8089Y559D01*
G01X8106Y563D01*
G01X8123Y568D01*
G01X8140Y574D01*
G01X8157Y581D01*
G01X8173Y588D01*
G01X8189Y596D01*
G01X8205Y605D01*
G01X8221Y615D01*
G01X8235Y625D01*
G01X8250Y636D01*
G01X8263Y648D01*
G01X8277Y660D01*
G01X8289Y672D01*
G01X8302Y686D01*
G01X8324Y714D01*
G01X8334Y728D01*
G01X8344Y744D01*
G01X8353Y759D01*
G01X8361Y776D01*
G01X8368Y792D01*
G01X8375Y809D01*
G01X8381Y826D01*
G01X8386Y843D01*
G01X8390Y860D01*
G01X8394Y878D01*
G01X8397Y896D01*
G01X8399Y913D01*
G01X8400Y932D01*
G01X8401Y950D01*
G01X8400Y967D01*
G01X8399Y986D01*
G01X8397Y1003D01*
G01X8394Y1021D01*
G01X8390Y1039D01*
G01X8386Y1056D01*
G01X8381Y1073D01*
G01X8375Y1090D01*
G01X8368Y1107D01*
G01X8361Y1123D01*
G01X8353Y1140D01*
G01X8344Y1155D01*
G01X8334Y1171D01*
G01X8324Y1185D01*
G01X8313Y1200D01*
G01X8302Y1213D01*
G01X8289Y1227D01*
G01X8277Y1239D01*
G01X8263Y1251D01*
G01X8250Y1263D01*
G01X8235Y1274D01*
G01X8221Y1284D01*
G01X8205Y1294D01*
G01X8189Y1303D01*
G01X8173Y1311D01*
G01X8157Y1318D01*
G01X8140Y1325D01*
G01X8123Y1331D01*
G01X8106Y1336D01*
G01X8089Y1340D01*
G01X8071Y1344D01*
G01X8053Y1347D01*
G01X8035Y1349D01*
G01X8018Y1350D01*
G37*
G36*
G01X3017Y1350D02*
G01X3000Y1351D01*
G01X2982Y1350D01*
G01X2963Y1349D01*
G01X2946Y1347D01*
G01X2928Y1344D01*
G01X2910Y1340D01*
G01X2893Y1336D01*
G01X2876Y1331D01*
G01X2859Y1325D01*
G01X2842Y1318D01*
G01X2826Y1311D01*
G01X2809Y1303D01*
G01X2794Y1294D01*
G01X2778Y1284D01*
G01X2764Y1274D01*
G01X2750Y1263D01*
G01X2722Y1239D01*
G01X2710Y1227D01*
G01X2698Y1213D01*
G01X2686Y1200D01*
G01X2675Y1185D01*
G01X2665Y1171D01*
G01X2655Y1155D01*
G01X2646Y1140D01*
G01X2638Y1123D01*
G01X2631Y1107D01*
G01X2624Y1090D01*
G01X2618Y1073D01*
G01X2613Y1056D01*
G01X2609Y1039D01*
G01X2605Y1021D01*
G01X2602Y1003D01*
G01X2600Y986D01*
G01X2599Y967D01*
G01X2598Y950D01*
G01X2599Y932D01*
G01X2600Y913D01*
G01X2602Y896D01*
G01X2605Y878D01*
G01X2609Y860D01*
G01X2613Y843D01*
G01X2618Y826D01*
G01X2624Y809D01*
G01X2631Y792D01*
G01X2638Y776D01*
G01X2646Y759D01*
G01X2655Y744D01*
G01X2665Y728D01*
G01X2675Y714D01*
G01X2686Y700D01*
G01X2710Y672D01*
G01X2722Y660D01*
G01X2750Y636D01*
G01X2764Y625D01*
G01X2778Y615D01*
G01X2794Y605D01*
G01X2809Y596D01*
G01X2826Y588D01*
G01X2842Y581D01*
G01X2859Y574D01*
G01X2876Y568D01*
G01X2893Y563D01*
G01X2910Y559D01*
G01X2928Y555D01*
G01X2946Y552D01*
G01X2963Y550D01*
G01X2982Y549D01*
G01X3000Y548D01*
G01X3017Y549D01*
G01X3036Y550D01*
G01X3053Y552D01*
G01X3071Y555D01*
G01X3089Y559D01*
G01X3106Y563D01*
G01X3123Y568D01*
G01X3140Y574D01*
G01X3157Y581D01*
G01X3173Y588D01*
G01X3190Y596D01*
G01X3205Y605D01*
G01X3221Y615D01*
G01X3235Y625D01*
G01X3250Y636D01*
G01X3263Y648D01*
G01X3277Y660D01*
G01X3289Y672D01*
G01X3313Y700D01*
G01X3324Y714D01*
G01X3334Y728D01*
G01X3344Y744D01*
G01X3353Y759D01*
G01X3361Y776D01*
G01X3368Y792D01*
G01X3375Y809D01*
G01X3381Y826D01*
G01X3386Y843D01*
G01X3390Y860D01*
G01X3394Y878D01*
G01X3397Y896D01*
G01X3399Y913D01*
G01X3400Y932D01*
G01X3401Y950D01*
G01X3400Y967D01*
G01X3399Y986D01*
G01X3397Y1003D01*
G01X3394Y1021D01*
G01X3390Y1039D01*
G01X3386Y1056D01*
G01X3381Y1073D01*
G01X3375Y1090D01*
G01X3368Y1107D01*
G01X3361Y1123D01*
G01X3353Y1140D01*
G01X3344Y1155D01*
G01X3334Y1171D01*
G01X3324Y1185D01*
G01X3313Y1200D01*
G01X3301Y1213D01*
G01X3289Y1227D01*
G01X3277Y1239D01*
G01X3263Y1251D01*
G01X3250Y1263D01*
G01X3235Y1274D01*
G01X3221Y1284D01*
G01X3205Y1294D01*
G01X3190Y1303D01*
G01X3173Y1311D01*
G01X3157Y1318D01*
G01X3140Y1325D01*
G01X3123Y1331D01*
G01X3106Y1336D01*
G01X3089Y1340D01*
G01X3071Y1344D01*
G01X3053Y1347D01*
G01X3036Y1349D01*
G01X3017Y1350D01*
G37*
G36*
G01X1017Y1350D02*
G01X1000Y1351D01*
G01X982Y1350D01*
G01X963Y1349D01*
G01X946Y1347D01*
G01X928Y1344D01*
G01X910Y1340D01*
G01X893Y1336D01*
G01X876Y1331D01*
G01X859Y1325D01*
G01X842Y1318D01*
G01X826Y1311D01*
G01X809Y1303D01*
G01X794Y1294D01*
G01X778Y1284D01*
G01X764Y1274D01*
G01X750Y1263D01*
G01X722Y1239D01*
G01X710Y1227D01*
G01X698Y1213D01*
G01X686Y1200D01*
G01X675Y1185D01*
G01X665Y1171D01*
G01X655Y1155D01*
G01X646Y1140D01*
G01X638Y1123D01*
G01X631Y1107D01*
G01X624Y1090D01*
G01X618Y1073D01*
G01X613Y1056D01*
G01X609Y1039D01*
G01X605Y1021D01*
G01X602Y1003D01*
G01X600Y986D01*
G01X599Y967D01*
G01X598Y950D01*
G01X599Y932D01*
G01X600Y913D01*
G01X602Y896D01*
G01X605Y878D01*
G01X609Y860D01*
G01X613Y843D01*
G01X618Y826D01*
G01X624Y809D01*
G01X631Y792D01*
G01X638Y776D01*
G01X646Y759D01*
G01X655Y744D01*
G01X665Y728D01*
G01X675Y714D01*
G01X686Y700D01*
G01X710Y672D01*
G01X722Y660D01*
G01X750Y636D01*
G01X764Y625D01*
G01X778Y615D01*
G01X794Y605D01*
G01X809Y596D01*
G01X826Y588D01*
G01X842Y581D01*
G01X859Y574D01*
G01X876Y568D01*
G01X893Y563D01*
G01X910Y559D01*
G01X928Y555D01*
G01X946Y552D01*
G01X963Y550D01*
G01X982Y549D01*
G01X1000Y548D01*
G01X1017Y549D01*
G01X1036Y550D01*
G01X1053Y552D01*
G01X1071Y555D01*
G01X1089Y559D01*
G01X1106Y563D01*
G01X1123Y568D01*
G01X1140Y574D01*
G01X1157Y581D01*
G01X1173Y588D01*
G01X1190Y596D01*
G01X1205Y605D01*
G01X1221Y615D01*
G01X1235Y625D01*
G01X1250Y636D01*
G01X1263Y648D01*
G01X1277Y660D01*
G01X1289Y672D01*
G01X1313Y700D01*
G01X1324Y714D01*
G01X1334Y728D01*
G01X1344Y744D01*
G01X1353Y759D01*
G01X1361Y776D01*
G01X1368Y792D01*
G01X1375Y809D01*
G01X1381Y826D01*
G01X1386Y843D01*
G01X1390Y860D01*
G01X1394Y878D01*
G01X1397Y896D01*
G01X1399Y913D01*
G01X1400Y932D01*
G01X1401Y950D01*
G01X1400Y967D01*
G01X1399Y986D01*
G01X1397Y1003D01*
G01X1394Y1021D01*
G01X1390Y1039D01*
G01X1386Y1056D01*
G01X1381Y1073D01*
G01X1375Y1090D01*
G01X1368Y1107D01*
G01X1361Y1123D01*
G01X1353Y1140D01*
G01X1344Y1155D01*
G01X1334Y1171D01*
G01X1324Y1185D01*
G01X1313Y1200D01*
G01X1301Y1213D01*
G01X1289Y1227D01*
G01X1277Y1239D01*
G01X1263Y1251D01*
G01X1250Y1263D01*
G01X1235Y1274D01*
G01X1221Y1284D01*
G01X1205Y1294D01*
G01X1190Y1303D01*
G01X1173Y1311D01*
G01X1157Y1318D01*
G01X1140Y1325D01*
G01X1123Y1331D01*
G01X1106Y1336D01*
G01X1089Y1340D01*
G01X1071Y1344D01*
G01X1053Y1347D01*
G01X1036Y1349D01*
G01X1017Y1350D01*
G37*
G36*
G01X4017Y1350D02*
G01X4000Y1351D01*
G01X3982Y1350D01*
G01X3963Y1349D01*
G01X3946Y1347D01*
G01X3928Y1344D01*
G01X3910Y1340D01*
G01X3893Y1336D01*
G01X3876Y1331D01*
G01X3859Y1325D01*
G01X3842Y1318D01*
G01X3826Y1311D01*
G01X3809Y1303D01*
G01X3794Y1294D01*
G01X3778Y1284D01*
G01X3764Y1274D01*
G01X3750Y1263D01*
G01X3722Y1239D01*
G01X3710Y1227D01*
G01X3698Y1213D01*
G01X3686Y1200D01*
G01X3675Y1185D01*
G01X3665Y1171D01*
G01X3655Y1155D01*
G01X3646Y1140D01*
G01X3638Y1123D01*
G01X3631Y1107D01*
G01X3624Y1090D01*
G01X3618Y1073D01*
G01X3613Y1056D01*
G01X3609Y1039D01*
G01X3605Y1021D01*
G01X3602Y1003D01*
G01X3600Y986D01*
G01X3599Y967D01*
G01X3598Y950D01*
G01X3599Y932D01*
G01X3600Y913D01*
G01X3602Y896D01*
G01X3605Y878D01*
G01X3609Y860D01*
G01X3613Y843D01*
G01X3618Y826D01*
G01X3624Y809D01*
G01X3631Y792D01*
G01X3638Y776D01*
G01X3646Y759D01*
G01X3655Y744D01*
G01X3665Y728D01*
G01X3675Y714D01*
G01X3686Y700D01*
G01X3710Y672D01*
G01X3722Y660D01*
G01X3750Y636D01*
G01X3764Y625D01*
G01X3778Y615D01*
G01X3794Y605D01*
G01X3809Y596D01*
G01X3826Y588D01*
G01X3842Y581D01*
G01X3859Y574D01*
G01X3876Y568D01*
G01X3893Y563D01*
G01X3910Y559D01*
G01X3928Y555D01*
G01X3946Y552D01*
G01X3963Y550D01*
G01X3982Y549D01*
G01X4000Y548D01*
G01X4017Y549D01*
G01X4036Y550D01*
G01X4053Y552D01*
G01X4071Y555D01*
G01X4089Y559D01*
G01X4106Y563D01*
G01X4123Y568D01*
G01X4140Y574D01*
G01X4157Y581D01*
G01X4173Y588D01*
G01X4190Y596D01*
G01X4205Y605D01*
G01X4221Y615D01*
G01X4235Y625D01*
G01X4250Y636D01*
G01X4263Y648D01*
G01X4277Y660D01*
G01X4289Y672D01*
G01X4313Y700D01*
G01X4324Y714D01*
G01X4334Y728D01*
G01X4344Y744D01*
G01X4353Y759D01*
G01X4361Y776D01*
G01X4368Y792D01*
G01X4375Y809D01*
G01X4381Y826D01*
G01X4386Y843D01*
G01X4390Y860D01*
G01X4394Y878D01*
G01X4397Y896D01*
G01X4399Y913D01*
G01X4400Y932D01*
G01X4401Y950D01*
G01X4400Y967D01*
G01X4399Y986D01*
G01X4397Y1003D01*
G01X4394Y1021D01*
G01X4390Y1039D01*
G01X4386Y1056D01*
G01X4381Y1073D01*
G01X4375Y1090D01*
G01X4368Y1107D01*
G01X4361Y1123D01*
G01X4353Y1140D01*
G01X4344Y1155D01*
G01X4334Y1171D01*
G01X4324Y1185D01*
G01X4313Y1200D01*
G01X4301Y1213D01*
G01X4289Y1227D01*
G01X4277Y1239D01*
G01X4263Y1251D01*
G01X4250Y1263D01*
G01X4235Y1274D01*
G01X4221Y1284D01*
G01X4205Y1294D01*
G01X4190Y1303D01*
G01X4173Y1311D01*
G01X4157Y1318D01*
G01X4140Y1325D01*
G01X4123Y1331D01*
G01X4106Y1336D01*
G01X4089Y1340D01*
G01X4071Y1344D01*
G01X4053Y1347D01*
G01X4036Y1349D01*
G01X4017Y1350D01*
G37*
G36*
G01X5018Y1350D02*
G01X5000Y1351D01*
G01X4981Y1350D01*
G01X4964Y1349D01*
G01X4946Y1347D01*
G01X4928Y1344D01*
G01X4910Y1340D01*
G01X4893Y1336D01*
G01X4876Y1331D01*
G01X4859Y1325D01*
G01X4842Y1318D01*
G01X4826Y1311D01*
G01X4810Y1303D01*
G01X4794Y1294D01*
G01X4778Y1284D01*
G01X4764Y1274D01*
G01X4750Y1263D01*
G01X4722Y1239D01*
G01X4710Y1227D01*
G01X4697Y1213D01*
G01X4686Y1200D01*
G01X4675Y1185D01*
G01X4665Y1171D01*
G01X4655Y1155D01*
G01X4646Y1140D01*
G01X4638Y1123D01*
G01X4631Y1107D01*
G01X4624Y1090D01*
G01X4618Y1073D01*
G01X4613Y1056D01*
G01X4609Y1039D01*
G01X4605Y1021D01*
G01X4602Y1003D01*
G01X4600Y986D01*
G01X4599Y967D01*
G01X4598Y950D01*
G01X4599Y932D01*
G01X4600Y913D01*
G01X4602Y896D01*
G01X4605Y878D01*
G01X4609Y860D01*
G01X4613Y843D01*
G01X4618Y826D01*
G01X4624Y809D01*
G01X4631Y792D01*
G01X4638Y776D01*
G01X4646Y759D01*
G01X4655Y744D01*
G01X4665Y728D01*
G01X4675Y714D01*
G01X4697Y686D01*
G01X4710Y672D01*
G01X4722Y660D01*
G01X4750Y636D01*
G01X4764Y625D01*
G01X4778Y615D01*
G01X4794Y605D01*
G01X4810Y596D01*
G01X4826Y588D01*
G01X4842Y581D01*
G01X4859Y574D01*
G01X4876Y568D01*
G01X4893Y563D01*
G01X4910Y559D01*
G01X4928Y555D01*
G01X4946Y552D01*
G01X4964Y550D01*
G01X4981Y549D01*
G01X5000Y548D01*
G01X5018Y549D01*
G01X5035Y550D01*
G01X5053Y552D01*
G01X5071Y555D01*
G01X5089Y559D01*
G01X5106Y563D01*
G01X5123Y568D01*
G01X5140Y574D01*
G01X5157Y581D01*
G01X5173Y588D01*
G01X5189Y596D01*
G01X5205Y605D01*
G01X5221Y615D01*
G01X5235Y625D01*
G01X5250Y636D01*
G01X5263Y648D01*
G01X5277Y660D01*
G01X5289Y672D01*
G01X5302Y686D01*
G01X5324Y714D01*
G01X5334Y728D01*
G01X5344Y744D01*
G01X5353Y759D01*
G01X5361Y776D01*
G01X5368Y792D01*
G01X5375Y809D01*
G01X5381Y826D01*
G01X5386Y843D01*
G01X5390Y860D01*
G01X5394Y878D01*
G01X5397Y896D01*
G01X5399Y913D01*
G01X5400Y932D01*
G01X5401Y950D01*
G01X5400Y967D01*
G01X5399Y986D01*
G01X5397Y1003D01*
G01X5394Y1021D01*
G01X5390Y1039D01*
G01X5386Y1056D01*
G01X5381Y1073D01*
G01X5375Y1090D01*
G01X5368Y1107D01*
G01X5361Y1123D01*
G01X5353Y1140D01*
G01X5344Y1155D01*
G01X5334Y1171D01*
G01X5324Y1185D01*
G01X5313Y1200D01*
G01X5302Y1213D01*
G01X5289Y1227D01*
G01X5277Y1239D01*
G01X5263Y1251D01*
G01X5250Y1263D01*
G01X5235Y1274D01*
G01X5221Y1284D01*
G01X5205Y1294D01*
G01X5189Y1303D01*
G01X5173Y1311D01*
G01X5157Y1318D01*
G01X5140Y1325D01*
G01X5123Y1331D01*
G01X5106Y1336D01*
G01X5089Y1340D01*
G01X5071Y1344D01*
G01X5053Y1347D01*
G01X5035Y1349D01*
G01X5018Y1350D01*
G37*
G36*
G01X9360Y775D02*
G01X9175Y775D01*
G01X9175Y589D01*
G01X9192Y598D01*
G01X9208Y607D01*
G01X9224Y617D01*
G01X9240Y628D01*
G01X9255Y640D01*
G01X9283Y666D01*
G01X9309Y694D01*
G01X9321Y709D01*
G01X9332Y725D01*
G01X9352Y757D01*
G01X9360Y775D01*
G37*
G36*
G01X8825Y775D02*
G01X8639Y775D01*
G01X8647Y757D01*
G01X8667Y725D01*
G01X8678Y709D01*
G01X8690Y694D01*
G01X8716Y666D01*
G01X8744Y640D01*
G01X8759Y628D01*
G01X8775Y617D01*
G01X8791Y607D01*
G01X8807Y598D01*
G01X8825Y589D01*
G01X8825Y775D01*
G37*
G36*
G01X8825Y1125D02*
G01X8825Y1310D01*
G01X8807Y1301D01*
G01X8791Y1292D01*
G01X8775Y1282D01*
G01X8759Y1271D01*
G01X8744Y1259D01*
G01X8716Y1233D01*
G01X8690Y1205D01*
G01X8678Y1190D01*
G01X8667Y1174D01*
G01X8647Y1142D01*
G01X8639Y1125D01*
G01X8825Y1125D01*
G37*
G36*
G01X9192Y1301D02*
G01X9175Y1310D01*
G01X9175Y1125D01*
G01X9360Y1125D01*
G01X9352Y1142D01*
G01X9332Y1174D01*
G01X9321Y1190D01*
G01X9309Y1205D01*
G01X9283Y1233D01*
G01X9255Y1259D01*
G01X9240Y1271D01*
G01X9224Y1282D01*
G01X9208Y1292D01*
G01X9192Y1301D01*
G37*
G36*
G01X12755Y1475D02*
G01X12478Y1475D01*
G01X12478Y1300D01*
G01X12479Y1290D01*
G01X12480Y1281D01*
G01X12482Y1272D01*
G01X12485Y1263D01*
G01X12489Y1255D01*
G01X12494Y1246D01*
G01X12499Y1239D01*
G01X12511Y1225D01*
G01X12519Y1219D01*
G01X12526Y1214D01*
G01X12535Y1209D01*
G01X12543Y1205D01*
G01X12552Y1202D01*
G01X12561Y1200D01*
G01X12570Y1199D01*
G01X12580Y1198D01*
G01X12755Y1198D01*
G01X12755Y1475D01*
G37*
G36*
G01X13481Y1475D02*
G01X13205Y1475D01*
G01X13205Y1198D01*
G01X13380Y1198D01*
G01X13398Y1200D01*
G01X13407Y1202D01*
G01X13416Y1205D01*
G01X13425Y1209D01*
G01X13433Y1214D01*
G01X13440Y1219D01*
G01X13447Y1225D01*
G01X13454Y1232D01*
G01X13460Y1239D01*
G01X13465Y1246D01*
G01X13470Y1255D01*
G01X13474Y1263D01*
G01X13477Y1272D01*
G01X13479Y1281D01*
G01X13480Y1290D01*
G01X13481Y1300D01*
G01X13481Y1475D01*
G37*
G36*
G01X11040Y2200D02*
G01X11019Y2201D01*
G01X10979Y2199D01*
G01X10959Y2197D01*
G01X10939Y2194D01*
G01X10919Y2190D01*
G01X10900Y2186D01*
G01X10880Y2181D01*
G01X10861Y2175D01*
G01X10823Y2161D01*
G01X10787Y2143D01*
G01X10769Y2133D01*
G01X10752Y2123D01*
G01X10735Y2112D01*
G01X10718Y2100D01*
G01X10703Y2088D01*
G01X10687Y2075D01*
G01X10672Y2061D01*
G01X10658Y2046D01*
G01X10644Y2032D01*
G01X10631Y2016D01*
G01X10619Y2001D01*
G01X10607Y1984D01*
G01X10596Y1967D01*
G01X10586Y1950D01*
G01X10576Y1932D01*
G01X10567Y1914D01*
G01X10559Y1896D01*
G01X10551Y1877D01*
G01X10544Y1858D01*
G01X10538Y1839D01*
G01X10533Y1819D01*
G01X10529Y1800D01*
G01X10525Y1780D01*
G01X10522Y1760D01*
G01X10520Y1740D01*
G01X10518Y1700D01*
G01X10519Y1679D01*
G01X10520Y1659D01*
G01X10522Y1639D01*
G01X10525Y1619D01*
G01X10529Y1599D01*
G01X10533Y1580D01*
G01X10538Y1560D01*
G01X10544Y1541D01*
G01X10551Y1522D01*
G01X10559Y1503D01*
G01X10567Y1485D01*
G01X10576Y1467D01*
G01X10586Y1449D01*
G01X10596Y1432D01*
G01X10607Y1415D01*
G01X10619Y1398D01*
G01X10631Y1383D01*
G01X10644Y1367D01*
G01X10658Y1353D01*
G01X10672Y1338D01*
G01X10687Y1325D01*
G01X10703Y1311D01*
G01X10718Y1299D01*
G01X10735Y1287D01*
G01X10752Y1276D01*
G01X10769Y1266D01*
G01X10787Y1256D01*
G01X10823Y1238D01*
G01X10861Y1224D01*
G01X10880Y1218D01*
G01X10900Y1213D01*
G01X10919Y1209D01*
G01X10939Y1205D01*
G01X10959Y1202D01*
G01X10979Y1200D01*
G01X11019Y1198D01*
G01X11040Y1199D01*
G01X11060Y1200D01*
G01X11080Y1202D01*
G01X11100Y1205D01*
G01X11120Y1209D01*
G01X11139Y1213D01*
G01X11159Y1218D01*
G01X11178Y1224D01*
G01X11216Y1238D01*
G01X11252Y1256D01*
G01X11270Y1266D01*
G01X11287Y1276D01*
G01X11304Y1287D01*
G01X11321Y1299D01*
G01X11336Y1311D01*
G01X11352Y1325D01*
G01X11367Y1338D01*
G01X11381Y1353D01*
G01X11394Y1367D01*
G01X11407Y1383D01*
G01X11420Y1398D01*
G01X11432Y1415D01*
G01X11443Y1432D01*
G01X11453Y1449D01*
G01X11463Y1467D01*
G01X11481Y1503D01*
G01X11495Y1541D01*
G01X11501Y1560D01*
G01X11506Y1580D01*
G01X11510Y1599D01*
G01X11514Y1619D01*
G01X11517Y1639D01*
G01X11519Y1659D01*
G01X11520Y1679D01*
G01X11521Y1700D01*
G01X11519Y1740D01*
G01X11517Y1760D01*
G01X11514Y1780D01*
G01X11510Y1800D01*
G01X11506Y1819D01*
G01X11501Y1839D01*
G01X11495Y1858D01*
G01X11481Y1896D01*
G01X11463Y1932D01*
G01X11453Y1950D01*
G01X11443Y1967D01*
G01X11432Y1984D01*
G01X11420Y2001D01*
G01X11407Y2016D01*
G01X11394Y2032D01*
G01X11381Y2046D01*
G01X11367Y2061D01*
G01X11352Y2075D01*
G01X11336Y2088D01*
G01X11321Y2100D01*
G01X11304Y2112D01*
G01X11287Y2123D01*
G01X11270Y2133D01*
G01X11252Y2143D01*
G01X11216Y2161D01*
G01X11178Y2175D01*
G01X11159Y2181D01*
G01X11139Y2186D01*
G01X11120Y2190D01*
G01X11100Y2194D01*
G01X11080Y2197D01*
G01X11060Y2199D01*
G01X11040Y2200D01*
G37*
G36*
G01X17570Y2249D02*
G01X17530Y2251D01*
G01X17509Y2250D01*
G01X17489Y2249D01*
G01X17469Y2247D01*
G01X17449Y2244D01*
G01X17429Y2240D01*
G01X17410Y2236D01*
G01X17390Y2231D01*
G01X17371Y2225D01*
G01X17333Y2211D01*
G01X17297Y2193D01*
G01X17279Y2183D01*
G01X17262Y2173D01*
G01X17245Y2162D01*
G01X17228Y2150D01*
G01X17213Y2138D01*
G01X17197Y2125D01*
G01X17182Y2111D01*
G01X17168Y2096D01*
G01X17155Y2082D01*
G01X17142Y2066D01*
G01X17129Y2051D01*
G01X17117Y2034D01*
G01X17106Y2017D01*
G01X17096Y2000D01*
G01X17086Y1982D01*
G01X17068Y1946D01*
G01X17054Y1908D01*
G01X17048Y1889D01*
G01X17043Y1869D01*
G01X17039Y1850D01*
G01X17035Y1830D01*
G01X17032Y1810D01*
G01X17030Y1790D01*
G01X17028Y1750D01*
G01X17029Y1729D01*
G01X17030Y1709D01*
G01X17032Y1689D01*
G01X17035Y1669D01*
G01X17039Y1649D01*
G01X17043Y1630D01*
G01X17048Y1610D01*
G01X17054Y1591D01*
G01X17068Y1553D01*
G01X17086Y1517D01*
G01X17096Y1499D01*
G01X17106Y1482D01*
G01X17117Y1465D01*
G01X17129Y1448D01*
G01X17142Y1433D01*
G01X17155Y1417D01*
G01X17168Y1403D01*
G01X17182Y1388D01*
G01X17197Y1375D01*
G01X17213Y1361D01*
G01X17228Y1349D01*
G01X17245Y1337D01*
G01X17262Y1326D01*
G01X17279Y1316D01*
G01X17297Y1306D01*
G01X17333Y1288D01*
G01X17371Y1274D01*
G01X17390Y1268D01*
G01X17410Y1263D01*
G01X17429Y1259D01*
G01X17449Y1255D01*
G01X17469Y1252D01*
G01X17489Y1250D01*
G01X17509Y1249D01*
G01X17530Y1248D01*
G01X17570Y1250D01*
G01X17590Y1252D01*
G01X17610Y1255D01*
G01X17630Y1259D01*
G01X17649Y1263D01*
G01X17669Y1268D01*
G01X17688Y1274D01*
G01X17726Y1288D01*
G01X17762Y1306D01*
G01X17780Y1316D01*
G01X17797Y1326D01*
G01X17814Y1337D01*
G01X17831Y1349D01*
G01X17846Y1361D01*
G01X17862Y1375D01*
G01X17877Y1388D01*
G01X17891Y1403D01*
G01X17905Y1417D01*
G01X17918Y1433D01*
G01X17930Y1448D01*
G01X17942Y1465D01*
G01X17953Y1482D01*
G01X17963Y1499D01*
G01X17973Y1517D01*
G01X17982Y1535D01*
G01X17990Y1553D01*
G01X17998Y1572D01*
G01X18005Y1591D01*
G01X18011Y1610D01*
G01X18016Y1630D01*
G01X18020Y1649D01*
G01X18024Y1669D01*
G01X18027Y1689D01*
G01X18029Y1709D01*
G01X18030Y1729D01*
G01X18031Y1750D01*
G01X18029Y1790D01*
G01X18027Y1810D01*
G01X18024Y1830D01*
G01X18020Y1850D01*
G01X18016Y1869D01*
G01X18011Y1889D01*
G01X18005Y1908D01*
G01X17998Y1927D01*
G01X17990Y1946D01*
G01X17982Y1964D01*
G01X17973Y1982D01*
G01X17963Y2000D01*
G01X17953Y2017D01*
G01X17942Y2034D01*
G01X17930Y2051D01*
G01X17918Y2066D01*
G01X17905Y2082D01*
G01X17891Y2096D01*
G01X17877Y2111D01*
G01X17862Y2125D01*
G01X17846Y2138D01*
G01X17831Y2150D01*
G01X17814Y2162D01*
G01X17797Y2173D01*
G01X17780Y2183D01*
G01X17762Y2193D01*
G01X17726Y2211D01*
G01X17688Y2225D01*
G01X17669Y2231D01*
G01X17649Y2236D01*
G01X17630Y2240D01*
G01X17610Y2244D01*
G01X17590Y2247D01*
G01X17570Y2249D01*
G37*
G36*
G01X15969Y2251D02*
G01X15169Y2251D01*
G01X15151Y2249D01*
G01X15142Y2247D01*
G01X15133Y2244D01*
G01X15125Y2240D01*
G01X15116Y2235D01*
G01X15109Y2230D01*
G01X15102Y2224D01*
G01X15095Y2217D01*
G01X15089Y2210D01*
G01X15084Y2203D01*
G01X15079Y2194D01*
G01X15075Y2186D01*
G01X15072Y2177D01*
G01X15070Y2168D01*
G01X15068Y2150D01*
G01X15068Y1350D01*
G01X15069Y1340D01*
G01X15070Y1331D01*
G01X15072Y1322D01*
G01X15075Y1313D01*
G01X15079Y1305D01*
G01X15084Y1296D01*
G01X15089Y1289D01*
G01X15095Y1282D01*
G01X15102Y1275D01*
G01X15109Y1269D01*
G01X15116Y1264D01*
G01X15125Y1259D01*
G01X15133Y1255D01*
G01X15142Y1252D01*
G01X15151Y1250D01*
G01X15169Y1248D01*
G01X15969Y1248D01*
G01X15979Y1249D01*
G01X15988Y1250D01*
G01X15997Y1252D01*
G01X16006Y1255D01*
G01X16014Y1259D01*
G01X16023Y1264D01*
G01X16030Y1269D01*
G01X16038Y1275D01*
G01X16050Y1289D01*
G01X16055Y1296D01*
G01X16060Y1305D01*
G01X16064Y1313D01*
G01X16067Y1322D01*
G01X16069Y1331D01*
G01X16070Y1340D01*
G01X16071Y1350D01*
G01X16071Y2150D01*
G01X16069Y2168D01*
G01X16067Y2177D01*
G01X16064Y2186D01*
G01X16060Y2194D01*
G01X16055Y2203D01*
G01X16050Y2210D01*
G01X16038Y2224D01*
G01X16030Y2230D01*
G01X16023Y2235D01*
G01X16014Y2240D01*
G01X16006Y2244D01*
G01X15997Y2247D01*
G01X15988Y2249D01*
G01X15979Y2250D01*
G01X15969Y2251D01*
G37*
G36*
G01X12755Y2201D02*
G01X12580Y2201D01*
G01X12570Y2200D01*
G01X12561Y2199D01*
G01X12552Y2197D01*
G01X12543Y2194D01*
G01X12535Y2190D01*
G01X12526Y2185D01*
G01X12519Y2180D01*
G01X12511Y2174D01*
G01X12499Y2160D01*
G01X12494Y2153D01*
G01X12489Y2144D01*
G01X12485Y2136D01*
G01X12482Y2127D01*
G01X12480Y2118D01*
G01X12478Y2100D01*
G01X12478Y1925D01*
G01X12755Y1925D01*
G01X12755Y2201D01*
G37*
G36*
G01X13380Y2201D02*
G01X13205Y2201D01*
G01X13205Y1925D01*
G01X13481Y1925D01*
G01X13481Y2100D01*
G01X13479Y2118D01*
G01X13477Y2127D01*
G01X13474Y2136D01*
G01X13470Y2144D01*
G01X13465Y2153D01*
G01X13460Y2160D01*
G01X13454Y2167D01*
G01X13447Y2174D01*
G01X13440Y2180D01*
G01X13433Y2185D01*
G01X13425Y2190D01*
G01X13416Y2194D01*
G01X13407Y2197D01*
G01X13398Y2199D01*
G01X13380Y2201D01*
G37*
G36*
G01X10706Y4809D02*
G01X10510Y4809D01*
G01X10510Y4619D01*
G01X10512Y4601D01*
G01X10514Y4592D01*
G01X10517Y4583D01*
G01X10521Y4575D01*
G01X10526Y4566D01*
G01X10531Y4559D01*
G01X10537Y4551D01*
G01X10543Y4545D01*
G01X10551Y4539D01*
G01X10558Y4534D01*
G01X10567Y4529D01*
G01X10575Y4525D01*
G01X10584Y4522D01*
G01X10593Y4520D01*
G01X10602Y4519D01*
G01X10706Y4519D01*
G01X10706Y4809D01*
G37*
G36*
G01X11189Y4809D02*
G01X10994Y4809D01*
G01X10994Y4519D01*
G01X11098Y4519D01*
G01X11107Y4520D01*
G01X11116Y4522D01*
G01X11125Y4525D01*
G01X11134Y4529D01*
G01X11142Y4534D01*
G01X11149Y4539D01*
G01X11163Y4551D01*
G01X11169Y4559D01*
G01X11174Y4566D01*
G01X11179Y4575D01*
G01X11183Y4583D01*
G01X11186Y4592D01*
G01X11188Y4601D01*
G01X11189Y4610D01*
G01X11189Y4809D01*
G37*
G36*
G01X4088Y5580D02*
G01X3611Y5580D01*
G01X3593Y5578D01*
G01X3584Y5576D01*
G01X3575Y5573D01*
G01X3567Y5569D01*
G01X3558Y5564D01*
G01X3551Y5559D01*
G01X3544Y5553D01*
G01X3537Y5546D01*
G01X3531Y5539D01*
G01X3526Y5532D01*
G01X3521Y5523D01*
G01X3517Y5515D01*
G01X3514Y5506D01*
G01X3512Y5497D01*
G01X3511Y5488D01*
G01X3511Y4610D01*
G01X3512Y4601D01*
G01X3514Y4592D01*
G01X3517Y4583D01*
G01X3521Y4575D01*
G01X3526Y4566D01*
G01X3531Y4559D01*
G01X3537Y4551D01*
G01X3551Y4539D01*
G01X3558Y4534D01*
G01X3567Y4529D01*
G01X3575Y4525D01*
G01X3584Y4522D01*
G01X3593Y4520D01*
G01X3602Y4519D01*
G01X4098Y4519D01*
G01X4107Y4520D01*
G01X4116Y4522D01*
G01X4125Y4525D01*
G01X4134Y4529D01*
G01X4142Y4534D01*
G01X4149Y4539D01*
G01X4157Y4545D01*
G01X4163Y4551D01*
G01X4169Y4559D01*
G01X4174Y4566D01*
G01X4179Y4575D01*
G01X4183Y4583D01*
G01X4186Y4592D01*
G01X4188Y4601D01*
G01X4190Y4619D01*
G01X4190Y5478D01*
G01X4189Y5488D01*
G01X4188Y5497D01*
G01X4186Y5506D01*
G01X4183Y5515D01*
G01X4179Y5523D01*
G01X4174Y5532D01*
G01X4169Y5539D01*
G01X4157Y5553D01*
G01X4149Y5559D01*
G01X4142Y5564D01*
G01X4134Y5569D01*
G01X4125Y5573D01*
G01X4116Y5576D01*
G01X4107Y5578D01*
G01X4098Y5579D01*
G01X4088Y5580D01*
G37*
G36*
G01X13089Y5580D02*
G01X12611Y5580D01*
G01X12593Y5578D01*
G01X12584Y5576D01*
G01X12575Y5573D01*
G01X12567Y5569D01*
G01X12558Y5564D01*
G01X12551Y5559D01*
G01X12543Y5553D01*
G01X12531Y5539D01*
G01X12526Y5532D01*
G01X12521Y5523D01*
G01X12517Y5515D01*
G01X12514Y5506D01*
G01X12512Y5497D01*
G01X12511Y5488D01*
G01X12510Y5478D01*
G01X12510Y4619D01*
G01X12512Y4601D01*
G01X12514Y4592D01*
G01X12517Y4583D01*
G01X12521Y4575D01*
G01X12526Y4566D01*
G01X12531Y4559D01*
G01X12537Y4551D01*
G01X12543Y4545D01*
G01X12551Y4539D01*
G01X12558Y4534D01*
G01X12567Y4529D01*
G01X12575Y4525D01*
G01X12584Y4522D01*
G01X12593Y4520D01*
G01X12602Y4519D01*
G01X13098Y4519D01*
G01X13107Y4520D01*
G01X13116Y4522D01*
G01X13125Y4525D01*
G01X13134Y4529D01*
G01X13142Y4534D01*
G01X13149Y4539D01*
G01X13163Y4551D01*
G01X13169Y4559D01*
G01X13174Y4566D01*
G01X13179Y4575D01*
G01X13183Y4583D01*
G01X13186Y4592D01*
G01X13188Y4601D01*
G01X13189Y4610D01*
G01X13189Y5488D01*
G01X13188Y5497D01*
G01X13186Y5506D01*
G01X13183Y5515D01*
G01X13179Y5523D01*
G01X13174Y5532D01*
G01X13169Y5539D01*
G01X13163Y5546D01*
G01X13156Y5553D01*
G01X13149Y5559D01*
G01X13142Y5564D01*
G01X13134Y5569D01*
G01X13125Y5573D01*
G01X13116Y5576D01*
G01X13107Y5578D01*
G01X13089Y5580D01*
G37*
G36*
G01X12089Y5580D02*
G01X11611Y5580D01*
G01X11593Y5578D01*
G01X11584Y5576D01*
G01X11575Y5573D01*
G01X11567Y5569D01*
G01X11558Y5564D01*
G01X11551Y5559D01*
G01X11543Y5553D01*
G01X11531Y5539D01*
G01X11526Y5532D01*
G01X11521Y5523D01*
G01X11517Y5515D01*
G01X11514Y5506D01*
G01X11512Y5497D01*
G01X11511Y5488D01*
G01X11510Y5478D01*
G01X11510Y4619D01*
G01X11512Y4601D01*
G01X11514Y4592D01*
G01X11517Y4583D01*
G01X11521Y4575D01*
G01X11526Y4566D01*
G01X11531Y4559D01*
G01X11537Y4551D01*
G01X11543Y4545D01*
G01X11551Y4539D01*
G01X11558Y4534D01*
G01X11567Y4529D01*
G01X11575Y4525D01*
G01X11584Y4522D01*
G01X11593Y4520D01*
G01X11602Y4519D01*
G01X12098Y4519D01*
G01X12107Y4520D01*
G01X12116Y4522D01*
G01X12125Y4525D01*
G01X12134Y4529D01*
G01X12142Y4534D01*
G01X12149Y4539D01*
G01X12163Y4551D01*
G01X12169Y4559D01*
G01X12174Y4566D01*
G01X12179Y4575D01*
G01X12183Y4583D01*
G01X12186Y4592D01*
G01X12188Y4601D01*
G01X12189Y4610D01*
G01X12189Y5488D01*
G01X12188Y5497D01*
G01X12186Y5506D01*
G01X12183Y5515D01*
G01X12179Y5523D01*
G01X12174Y5532D01*
G01X12169Y5539D01*
G01X12163Y5546D01*
G01X12156Y5553D01*
G01X12149Y5559D01*
G01X12142Y5564D01*
G01X12134Y5569D01*
G01X12125Y5573D01*
G01X12116Y5576D01*
G01X12107Y5578D01*
G01X12089Y5580D01*
G37*
G36*
G01X8089Y5580D02*
G01X7611Y5580D01*
G01X7593Y5578D01*
G01X7584Y5576D01*
G01X7575Y5573D01*
G01X7567Y5569D01*
G01X7558Y5564D01*
G01X7551Y5559D01*
G01X7543Y5553D01*
G01X7531Y5539D01*
G01X7526Y5532D01*
G01X7521Y5523D01*
G01X7517Y5515D01*
G01X7514Y5506D01*
G01X7512Y5497D01*
G01X7511Y5488D01*
G01X7510Y5478D01*
G01X7510Y4619D01*
G01X7512Y4601D01*
G01X7514Y4592D01*
G01X7517Y4583D01*
G01X7521Y4575D01*
G01X7526Y4566D01*
G01X7531Y4559D01*
G01X7537Y4551D01*
G01X7543Y4545D01*
G01X7551Y4539D01*
G01X7558Y4534D01*
G01X7567Y4529D01*
G01X7575Y4525D01*
G01X7584Y4522D01*
G01X7593Y4520D01*
G01X7602Y4519D01*
G01X8098Y4519D01*
G01X8107Y4520D01*
G01X8116Y4522D01*
G01X8125Y4525D01*
G01X8134Y4529D01*
G01X8142Y4534D01*
G01X8149Y4539D01*
G01X8163Y4551D01*
G01X8169Y4559D01*
G01X8174Y4566D01*
G01X8179Y4575D01*
G01X8183Y4583D01*
G01X8186Y4592D01*
G01X8188Y4601D01*
G01X8189Y4610D01*
G01X8189Y5488D01*
G01X8188Y5497D01*
G01X8186Y5506D01*
G01X8183Y5515D01*
G01X8179Y5523D01*
G01X8174Y5532D01*
G01X8169Y5539D01*
G01X8163Y5546D01*
G01X8156Y5553D01*
G01X8149Y5559D01*
G01X8142Y5564D01*
G01X8134Y5569D01*
G01X8125Y5573D01*
G01X8116Y5576D01*
G01X8107Y5578D01*
G01X8089Y5580D01*
G37*
G36*
G01X14089Y5580D02*
G01X13611Y5580D01*
G01X13593Y5578D01*
G01X13584Y5576D01*
G01X13575Y5573D01*
G01X13567Y5569D01*
G01X13558Y5564D01*
G01X13551Y5559D01*
G01X13543Y5553D01*
G01X13531Y5539D01*
G01X13526Y5532D01*
G01X13521Y5523D01*
G01X13517Y5515D01*
G01X13514Y5506D01*
G01X13512Y5497D01*
G01X13511Y5488D01*
G01X13510Y5478D01*
G01X13510Y4619D01*
G01X13512Y4601D01*
G01X13514Y4592D01*
G01X13517Y4583D01*
G01X13521Y4575D01*
G01X13526Y4566D01*
G01X13531Y4559D01*
G01X13537Y4551D01*
G01X13543Y4545D01*
G01X13551Y4539D01*
G01X13558Y4534D01*
G01X13567Y4529D01*
G01X13575Y4525D01*
G01X13584Y4522D01*
G01X13593Y4520D01*
G01X13602Y4519D01*
G01X14098Y4519D01*
G01X14107Y4520D01*
G01X14116Y4522D01*
G01X14125Y4525D01*
G01X14134Y4529D01*
G01X14142Y4534D01*
G01X14149Y4539D01*
G01X14163Y4551D01*
G01X14169Y4559D01*
G01X14174Y4566D01*
G01X14179Y4575D01*
G01X14183Y4583D01*
G01X14186Y4592D01*
G01X14188Y4601D01*
G01X14189Y4610D01*
G01X14189Y5488D01*
G01X14188Y5497D01*
G01X14186Y5506D01*
G01X14183Y5515D01*
G01X14179Y5523D01*
G01X14174Y5532D01*
G01X14169Y5539D01*
G01X14163Y5546D01*
G01X14156Y5553D01*
G01X14149Y5559D01*
G01X14142Y5564D01*
G01X14134Y5569D01*
G01X14125Y5573D01*
G01X14116Y5576D01*
G01X14107Y5578D01*
G01X14089Y5580D01*
G37*
G36*
G01X6089Y5580D02*
G01X5611Y5580D01*
G01X5593Y5578D01*
G01X5584Y5576D01*
G01X5575Y5573D01*
G01X5567Y5569D01*
G01X5558Y5564D01*
G01X5551Y5559D01*
G01X5543Y5553D01*
G01X5531Y5539D01*
G01X5526Y5532D01*
G01X5521Y5523D01*
G01X5517Y5515D01*
G01X5514Y5506D01*
G01X5512Y5497D01*
G01X5511Y5488D01*
G01X5510Y5478D01*
G01X5510Y4619D01*
G01X5512Y4601D01*
G01X5514Y4592D01*
G01X5517Y4583D01*
G01X5521Y4575D01*
G01X5526Y4566D01*
G01X5531Y4559D01*
G01X5537Y4551D01*
G01X5543Y4545D01*
G01X5551Y4539D01*
G01X5558Y4534D01*
G01X5567Y4529D01*
G01X5575Y4525D01*
G01X5584Y4522D01*
G01X5593Y4520D01*
G01X5602Y4519D01*
G01X6098Y4519D01*
G01X6107Y4520D01*
G01X6116Y4522D01*
G01X6125Y4525D01*
G01X6134Y4529D01*
G01X6142Y4534D01*
G01X6149Y4539D01*
G01X6163Y4551D01*
G01X6169Y4559D01*
G01X6174Y4566D01*
G01X6179Y4575D01*
G01X6183Y4583D01*
G01X6186Y4592D01*
G01X6188Y4601D01*
G01X6189Y4610D01*
G01X6189Y5488D01*
G01X6188Y5497D01*
G01X6186Y5506D01*
G01X6183Y5515D01*
G01X6179Y5523D01*
G01X6174Y5532D01*
G01X6169Y5539D01*
G01X6163Y5546D01*
G01X6156Y5553D01*
G01X6149Y5559D01*
G01X6142Y5564D01*
G01X6134Y5569D01*
G01X6125Y5573D01*
G01X6116Y5576D01*
G01X6107Y5578D01*
G01X6089Y5580D01*
G37*
G36*
G01X10089Y5580D02*
G01X9611Y5580D01*
G01X9593Y5578D01*
G01X9584Y5576D01*
G01X9575Y5573D01*
G01X9567Y5569D01*
G01X9558Y5564D01*
G01X9551Y5559D01*
G01X9543Y5553D01*
G01X9531Y5539D01*
G01X9526Y5532D01*
G01X9521Y5523D01*
G01X9517Y5515D01*
G01X9514Y5506D01*
G01X9512Y5497D01*
G01X9511Y5488D01*
G01X9510Y5478D01*
G01X9510Y4619D01*
G01X9512Y4601D01*
G01X9514Y4592D01*
G01X9517Y4583D01*
G01X9521Y4575D01*
G01X9526Y4566D01*
G01X9531Y4559D01*
G01X9537Y4551D01*
G01X9543Y4545D01*
G01X9551Y4539D01*
G01X9558Y4534D01*
G01X9567Y4529D01*
G01X9575Y4525D01*
G01X9584Y4522D01*
G01X9593Y4520D01*
G01X9602Y4519D01*
G01X10098Y4519D01*
G01X10107Y4520D01*
G01X10116Y4522D01*
G01X10125Y4525D01*
G01X10134Y4529D01*
G01X10142Y4534D01*
G01X10149Y4539D01*
G01X10163Y4551D01*
G01X10169Y4559D01*
G01X10174Y4566D01*
G01X10179Y4575D01*
G01X10183Y4583D01*
G01X10186Y4592D01*
G01X10188Y4601D01*
G01X10189Y4610D01*
G01X10189Y5488D01*
G01X10188Y5497D01*
G01X10186Y5506D01*
G01X10183Y5515D01*
G01X10179Y5523D01*
G01X10174Y5532D01*
G01X10169Y5539D01*
G01X10163Y5546D01*
G01X10156Y5553D01*
G01X10149Y5559D01*
G01X10142Y5564D01*
G01X10134Y5569D01*
G01X10125Y5573D01*
G01X10116Y5576D01*
G01X10107Y5578D01*
G01X10089Y5580D01*
G37*
G36*
G01X9089Y5580D02*
G01X8611Y5580D01*
G01X8593Y5578D01*
G01X8584Y5576D01*
G01X8575Y5573D01*
G01X8567Y5569D01*
G01X8558Y5564D01*
G01X8551Y5559D01*
G01X8543Y5553D01*
G01X8531Y5539D01*
G01X8526Y5532D01*
G01X8521Y5523D01*
G01X8517Y5515D01*
G01X8514Y5506D01*
G01X8512Y5497D01*
G01X8511Y5488D01*
G01X8510Y5478D01*
G01X8510Y4619D01*
G01X8512Y4601D01*
G01X8514Y4592D01*
G01X8517Y4583D01*
G01X8521Y4575D01*
G01X8526Y4566D01*
G01X8531Y4559D01*
G01X8537Y4551D01*
G01X8543Y4545D01*
G01X8551Y4539D01*
G01X8558Y4534D01*
G01X8567Y4529D01*
G01X8575Y4525D01*
G01X8584Y4522D01*
G01X8593Y4520D01*
G01X8602Y4519D01*
G01X9098Y4519D01*
G01X9107Y4520D01*
G01X9116Y4522D01*
G01X9125Y4525D01*
G01X9134Y4529D01*
G01X9142Y4534D01*
G01X9149Y4539D01*
G01X9163Y4551D01*
G01X9169Y4559D01*
G01X9174Y4566D01*
G01X9179Y4575D01*
G01X9183Y4583D01*
G01X9186Y4592D01*
G01X9188Y4601D01*
G01X9189Y4610D01*
G01X9189Y5488D01*
G01X9188Y5497D01*
G01X9186Y5506D01*
G01X9183Y5515D01*
G01X9179Y5523D01*
G01X9174Y5532D01*
G01X9169Y5539D01*
G01X9163Y5546D01*
G01X9156Y5553D01*
G01X9149Y5559D01*
G01X9142Y5564D01*
G01X9134Y5569D01*
G01X9125Y5573D01*
G01X9116Y5576D01*
G01X9107Y5578D01*
G01X9089Y5580D01*
G37*
G36*
G01X2088Y5580D02*
G01X1611Y5580D01*
G01X1593Y5578D01*
G01X1584Y5576D01*
G01X1575Y5573D01*
G01X1567Y5569D01*
G01X1558Y5564D01*
G01X1551Y5559D01*
G01X1544Y5553D01*
G01X1537Y5546D01*
G01X1531Y5539D01*
G01X1526Y5532D01*
G01X1521Y5523D01*
G01X1517Y5515D01*
G01X1514Y5506D01*
G01X1512Y5497D01*
G01X1511Y5488D01*
G01X1511Y4610D01*
G01X1512Y4601D01*
G01X1514Y4592D01*
G01X1517Y4583D01*
G01X1521Y4575D01*
G01X1526Y4566D01*
G01X1531Y4559D01*
G01X1537Y4551D01*
G01X1551Y4539D01*
G01X1558Y4534D01*
G01X1567Y4529D01*
G01X1575Y4525D01*
G01X1584Y4522D01*
G01X1593Y4520D01*
G01X1602Y4519D01*
G01X2098Y4519D01*
G01X2107Y4520D01*
G01X2116Y4522D01*
G01X2125Y4525D01*
G01X2134Y4529D01*
G01X2142Y4534D01*
G01X2149Y4539D01*
G01X2157Y4545D01*
G01X2163Y4551D01*
G01X2169Y4559D01*
G01X2174Y4566D01*
G01X2179Y4575D01*
G01X2183Y4583D01*
G01X2186Y4592D01*
G01X2188Y4601D01*
G01X2190Y4619D01*
G01X2190Y5478D01*
G01X2189Y5488D01*
G01X2188Y5497D01*
G01X2186Y5506D01*
G01X2183Y5515D01*
G01X2179Y5523D01*
G01X2174Y5532D01*
G01X2169Y5539D01*
G01X2157Y5553D01*
G01X2149Y5559D01*
G01X2142Y5564D01*
G01X2134Y5569D01*
G01X2125Y5573D01*
G01X2116Y5576D01*
G01X2107Y5578D01*
G01X2098Y5579D01*
G01X2088Y5580D01*
G37*
G36*
G01X7089Y5580D02*
G01X6611Y5580D01*
G01X6593Y5578D01*
G01X6584Y5576D01*
G01X6575Y5573D01*
G01X6567Y5569D01*
G01X6558Y5564D01*
G01X6551Y5559D01*
G01X6543Y5553D01*
G01X6531Y5539D01*
G01X6526Y5532D01*
G01X6521Y5523D01*
G01X6517Y5515D01*
G01X6514Y5506D01*
G01X6512Y5497D01*
G01X6511Y5488D01*
G01X6510Y5478D01*
G01X6510Y4619D01*
G01X6512Y4601D01*
G01X6514Y4592D01*
G01X6517Y4583D01*
G01X6521Y4575D01*
G01X6526Y4566D01*
G01X6531Y4559D01*
G01X6537Y4551D01*
G01X6543Y4545D01*
G01X6551Y4539D01*
G01X6558Y4534D01*
G01X6567Y4529D01*
G01X6575Y4525D01*
G01X6584Y4522D01*
G01X6593Y4520D01*
G01X6602Y4519D01*
G01X7098Y4519D01*
G01X7107Y4520D01*
G01X7116Y4522D01*
G01X7125Y4525D01*
G01X7134Y4529D01*
G01X7142Y4534D01*
G01X7149Y4539D01*
G01X7163Y4551D01*
G01X7169Y4559D01*
G01X7174Y4566D01*
G01X7179Y4575D01*
G01X7183Y4583D01*
G01X7186Y4592D01*
G01X7188Y4601D01*
G01X7189Y4610D01*
G01X7189Y5488D01*
G01X7188Y5497D01*
G01X7186Y5506D01*
G01X7183Y5515D01*
G01X7179Y5523D01*
G01X7174Y5532D01*
G01X7169Y5539D01*
G01X7163Y5546D01*
G01X7156Y5553D01*
G01X7149Y5559D01*
G01X7142Y5564D01*
G01X7134Y5569D01*
G01X7125Y5573D01*
G01X7116Y5576D01*
G01X7107Y5578D01*
G01X7089Y5580D01*
G37*
G36*
G01X15089Y5580D02*
G01X14611Y5580D01*
G01X14593Y5578D01*
G01X14584Y5576D01*
G01X14575Y5573D01*
G01X14567Y5569D01*
G01X14558Y5564D01*
G01X14551Y5559D01*
G01X14543Y5553D01*
G01X14531Y5539D01*
G01X14526Y5532D01*
G01X14521Y5523D01*
G01X14517Y5515D01*
G01X14514Y5506D01*
G01X14512Y5497D01*
G01X14511Y5488D01*
G01X14510Y5478D01*
G01X14510Y4619D01*
G01X14512Y4601D01*
G01X14514Y4592D01*
G01X14517Y4583D01*
G01X14521Y4575D01*
G01X14526Y4566D01*
G01X14531Y4559D01*
G01X14537Y4551D01*
G01X14543Y4545D01*
G01X14551Y4539D01*
G01X14558Y4534D01*
G01X14567Y4529D01*
G01X14575Y4525D01*
G01X14584Y4522D01*
G01X14593Y4520D01*
G01X14602Y4519D01*
G01X15098Y4519D01*
G01X15107Y4520D01*
G01X15116Y4522D01*
G01X15125Y4525D01*
G01X15134Y4529D01*
G01X15142Y4534D01*
G01X15149Y4539D01*
G01X15163Y4551D01*
G01X15169Y4559D01*
G01X15174Y4566D01*
G01X15179Y4575D01*
G01X15183Y4583D01*
G01X15186Y4592D01*
G01X15188Y4601D01*
G01X15189Y4610D01*
G01X15189Y5488D01*
G01X15188Y5497D01*
G01X15186Y5506D01*
G01X15183Y5515D01*
G01X15179Y5523D01*
G01X15174Y5532D01*
G01X15169Y5539D01*
G01X15163Y5546D01*
G01X15156Y5553D01*
G01X15149Y5559D01*
G01X15142Y5564D01*
G01X15134Y5569D01*
G01X15125Y5573D01*
G01X15116Y5576D01*
G01X15107Y5578D01*
G01X15089Y5580D01*
G37*
G36*
G01X3088Y5580D02*
G01X2611Y5580D01*
G01X2593Y5578D01*
G01X2584Y5576D01*
G01X2575Y5573D01*
G01X2567Y5569D01*
G01X2558Y5564D01*
G01X2551Y5559D01*
G01X2544Y5553D01*
G01X2537Y5546D01*
G01X2531Y5539D01*
G01X2526Y5532D01*
G01X2521Y5523D01*
G01X2517Y5515D01*
G01X2514Y5506D01*
G01X2512Y5497D01*
G01X2511Y5488D01*
G01X2511Y4610D01*
G01X2512Y4601D01*
G01X2514Y4592D01*
G01X2517Y4583D01*
G01X2521Y4575D01*
G01X2526Y4566D01*
G01X2531Y4559D01*
G01X2537Y4551D01*
G01X2551Y4539D01*
G01X2558Y4534D01*
G01X2567Y4529D01*
G01X2575Y4525D01*
G01X2584Y4522D01*
G01X2593Y4520D01*
G01X2602Y4519D01*
G01X3098Y4519D01*
G01X3107Y4520D01*
G01X3116Y4522D01*
G01X3125Y4525D01*
G01X3134Y4529D01*
G01X3142Y4534D01*
G01X3149Y4539D01*
G01X3157Y4545D01*
G01X3163Y4551D01*
G01X3169Y4559D01*
G01X3174Y4566D01*
G01X3179Y4575D01*
G01X3183Y4583D01*
G01X3186Y4592D01*
G01X3188Y4601D01*
G01X3190Y4619D01*
G01X3190Y5478D01*
G01X3189Y5488D01*
G01X3188Y5497D01*
G01X3186Y5506D01*
G01X3183Y5515D01*
G01X3179Y5523D01*
G01X3174Y5532D01*
G01X3169Y5539D01*
G01X3157Y5553D01*
G01X3149Y5559D01*
G01X3142Y5564D01*
G01X3134Y5569D01*
G01X3125Y5573D01*
G01X3116Y5576D01*
G01X3107Y5578D01*
G01X3098Y5579D01*
G01X3088Y5580D01*
G37*
G36*
G01X5089Y5580D02*
G01X4611Y5580D01*
G01X4593Y5578D01*
G01X4584Y5576D01*
G01X4575Y5573D01*
G01X4567Y5569D01*
G01X4558Y5564D01*
G01X4551Y5559D01*
G01X4544Y5553D01*
G01X4537Y5546D01*
G01X4531Y5539D01*
G01X4526Y5532D01*
G01X4521Y5523D01*
G01X4517Y5515D01*
G01X4514Y5506D01*
G01X4512Y5497D01*
G01X4511Y5488D01*
G01X4511Y4610D01*
G01X4512Y4601D01*
G01X4514Y4592D01*
G01X4517Y4583D01*
G01X4521Y4575D01*
G01X4526Y4566D01*
G01X4531Y4559D01*
G01X4537Y4551D01*
G01X4551Y4539D01*
G01X4558Y4534D01*
G01X4567Y4529D01*
G01X4575Y4525D01*
G01X4584Y4522D01*
G01X4593Y4520D01*
G01X4602Y4519D01*
G01X5098Y4519D01*
G01X5107Y4520D01*
G01X5116Y4522D01*
G01X5125Y4525D01*
G01X5134Y4529D01*
G01X5142Y4534D01*
G01X5149Y4539D01*
G01X5163Y4551D01*
G01X5169Y4559D01*
G01X5174Y4566D01*
G01X5179Y4575D01*
G01X5183Y4583D01*
G01X5186Y4592D01*
G01X5188Y4601D01*
G01X5189Y4610D01*
G01X5189Y5488D01*
G01X5188Y5497D01*
G01X5186Y5506D01*
G01X5183Y5515D01*
G01X5179Y5523D01*
G01X5174Y5532D01*
G01X5169Y5539D01*
G01X5163Y5546D01*
G01X5156Y5553D01*
G01X5149Y5559D01*
G01X5142Y5564D01*
G01X5134Y5569D01*
G01X5125Y5573D01*
G01X5116Y5576D01*
G01X5107Y5578D01*
G01X5089Y5580D01*
G37*
G36*
G01X10706Y5580D02*
G01X10611Y5580D01*
G01X10593Y5578D01*
G01X10584Y5576D01*
G01X10575Y5573D01*
G01X10567Y5569D01*
G01X10558Y5564D01*
G01X10551Y5559D01*
G01X10543Y5553D01*
G01X10531Y5539D01*
G01X10526Y5532D01*
G01X10521Y5523D01*
G01X10517Y5515D01*
G01X10514Y5506D01*
G01X10512Y5497D01*
G01X10511Y5488D01*
G01X10510Y5478D01*
G01X10510Y5289D01*
G01X10706Y5289D01*
G01X10706Y5580D01*
G37*
G36*
G01X11089Y5580D02*
G01X10994Y5580D01*
G01X10994Y5289D01*
G01X11189Y5289D01*
G01X11189Y5488D01*
G01X11188Y5497D01*
G01X11186Y5506D01*
G01X11183Y5515D01*
G01X11179Y5523D01*
G01X11174Y5532D01*
G01X11169Y5539D01*
G01X11163Y5546D01*
G01X11156Y5553D01*
G01X11149Y5559D01*
G01X11142Y5564D01*
G01X11134Y5569D01*
G01X11125Y5573D01*
G01X11116Y5576D01*
G01X11107Y5578D01*
G01X11089Y5580D01*
G37*
G36*
G01X7089Y8580D02*
G01X6611Y8580D01*
G01X6593Y8578D01*
G01X6584Y8576D01*
G01X6575Y8573D01*
G01X6567Y8569D01*
G01X6558Y8564D01*
G01X6551Y8559D01*
G01X6543Y8553D01*
G01X6531Y8539D01*
G01X6526Y8532D01*
G01X6521Y8523D01*
G01X6517Y8515D01*
G01X6514Y8506D01*
G01X6512Y8497D01*
G01X6511Y8488D01*
G01X6510Y8478D01*
G01X6510Y7619D01*
G01X6512Y7601D01*
G01X6514Y7592D01*
G01X6517Y7583D01*
G01X6521Y7575D01*
G01X6526Y7566D01*
G01X6531Y7559D01*
G01X6537Y7551D01*
G01X6543Y7545D01*
G01X6551Y7539D01*
G01X6558Y7534D01*
G01X6567Y7529D01*
G01X6575Y7525D01*
G01X6584Y7522D01*
G01X6593Y7520D01*
G01X6602Y7519D01*
G01X7098Y7519D01*
G01X7107Y7520D01*
G01X7116Y7522D01*
G01X7125Y7525D01*
G01X7134Y7529D01*
G01X7142Y7534D01*
G01X7149Y7539D01*
G01X7163Y7551D01*
G01X7169Y7559D01*
G01X7174Y7566D01*
G01X7179Y7575D01*
G01X7183Y7583D01*
G01X7186Y7592D01*
G01X7188Y7601D01*
G01X7189Y7610D01*
G01X7189Y8488D01*
G01X7188Y8497D01*
G01X7186Y8506D01*
G01X7183Y8515D01*
G01X7179Y8523D01*
G01X7174Y8532D01*
G01X7169Y8539D01*
G01X7163Y8546D01*
G01X7156Y8553D01*
G01X7149Y8559D01*
G01X7142Y8564D01*
G01X7134Y8569D01*
G01X7125Y8573D01*
G01X7116Y8576D01*
G01X7107Y8578D01*
G01X7089Y8580D01*
G37*
G36*
G01X4088Y8580D02*
G01X3611Y8580D01*
G01X3593Y8578D01*
G01X3584Y8576D01*
G01X3575Y8573D01*
G01X3567Y8569D01*
G01X3558Y8564D01*
G01X3551Y8559D01*
G01X3544Y8553D01*
G01X3537Y8546D01*
G01X3531Y8539D01*
G01X3526Y8532D01*
G01X3521Y8523D01*
G01X3517Y8515D01*
G01X3514Y8506D01*
G01X3512Y8497D01*
G01X3511Y8488D01*
G01X3511Y7610D01*
G01X3512Y7601D01*
G01X3514Y7592D01*
G01X3517Y7583D01*
G01X3521Y7575D01*
G01X3526Y7566D01*
G01X3531Y7559D01*
G01X3537Y7551D01*
G01X3551Y7539D01*
G01X3558Y7534D01*
G01X3567Y7529D01*
G01X3575Y7525D01*
G01X3584Y7522D01*
G01X3593Y7520D01*
G01X3602Y7519D01*
G01X4098Y7519D01*
G01X4107Y7520D01*
G01X4116Y7522D01*
G01X4125Y7525D01*
G01X4134Y7529D01*
G01X4142Y7534D01*
G01X4149Y7539D01*
G01X4157Y7545D01*
G01X4163Y7551D01*
G01X4169Y7559D01*
G01X4174Y7566D01*
G01X4179Y7575D01*
G01X4183Y7583D01*
G01X4186Y7592D01*
G01X4188Y7601D01*
G01X4190Y7619D01*
G01X4190Y8478D01*
G01X4189Y8488D01*
G01X4188Y8497D01*
G01X4186Y8506D01*
G01X4183Y8515D01*
G01X4179Y8523D01*
G01X4174Y8532D01*
G01X4169Y8539D01*
G01X4157Y8553D01*
G01X4149Y8559D01*
G01X4142Y8564D01*
G01X4134Y8569D01*
G01X4125Y8573D01*
G01X4116Y8576D01*
G01X4107Y8578D01*
G01X4098Y8579D01*
G01X4088Y8580D01*
G37*
G36*
G01X13089Y8580D02*
G01X12611Y8580D01*
G01X12593Y8578D01*
G01X12584Y8576D01*
G01X12575Y8573D01*
G01X12567Y8569D01*
G01X12558Y8564D01*
G01X12551Y8559D01*
G01X12543Y8553D01*
G01X12531Y8539D01*
G01X12526Y8532D01*
G01X12521Y8523D01*
G01X12517Y8515D01*
G01X12514Y8506D01*
G01X12512Y8497D01*
G01X12511Y8488D01*
G01X12510Y8478D01*
G01X12510Y7619D01*
G01X12512Y7601D01*
G01X12514Y7592D01*
G01X12517Y7583D01*
G01X12521Y7575D01*
G01X12526Y7566D01*
G01X12531Y7559D01*
G01X12537Y7551D01*
G01X12543Y7545D01*
G01X12551Y7539D01*
G01X12558Y7534D01*
G01X12567Y7529D01*
G01X12575Y7525D01*
G01X12584Y7522D01*
G01X12593Y7520D01*
G01X12602Y7519D01*
G01X13098Y7519D01*
G01X13107Y7520D01*
G01X13116Y7522D01*
G01X13125Y7525D01*
G01X13134Y7529D01*
G01X13142Y7534D01*
G01X13149Y7539D01*
G01X13163Y7551D01*
G01X13169Y7559D01*
G01X13174Y7566D01*
G01X13179Y7575D01*
G01X13183Y7583D01*
G01X13186Y7592D01*
G01X13188Y7601D01*
G01X13189Y7610D01*
G01X13189Y8488D01*
G01X13188Y8497D01*
G01X13186Y8506D01*
G01X13183Y8515D01*
G01X13179Y8523D01*
G01X13174Y8532D01*
G01X13169Y8539D01*
G01X13163Y8546D01*
G01X13156Y8553D01*
G01X13149Y8559D01*
G01X13142Y8564D01*
G01X13134Y8569D01*
G01X13125Y8573D01*
G01X13116Y8576D01*
G01X13107Y8578D01*
G01X13089Y8580D01*
G37*
G36*
G01X6089Y8580D02*
G01X5611Y8580D01*
G01X5593Y8578D01*
G01X5584Y8576D01*
G01X5575Y8573D01*
G01X5567Y8569D01*
G01X5558Y8564D01*
G01X5551Y8559D01*
G01X5543Y8553D01*
G01X5531Y8539D01*
G01X5526Y8532D01*
G01X5521Y8523D01*
G01X5517Y8515D01*
G01X5514Y8506D01*
G01X5512Y8497D01*
G01X5511Y8488D01*
G01X5510Y8478D01*
G01X5510Y7619D01*
G01X5512Y7601D01*
G01X5514Y7592D01*
G01X5517Y7583D01*
G01X5521Y7575D01*
G01X5526Y7566D01*
G01X5531Y7559D01*
G01X5537Y7551D01*
G01X5543Y7545D01*
G01X5551Y7539D01*
G01X5558Y7534D01*
G01X5567Y7529D01*
G01X5575Y7525D01*
G01X5584Y7522D01*
G01X5593Y7520D01*
G01X5602Y7519D01*
G01X6098Y7519D01*
G01X6107Y7520D01*
G01X6116Y7522D01*
G01X6125Y7525D01*
G01X6134Y7529D01*
G01X6142Y7534D01*
G01X6149Y7539D01*
G01X6163Y7551D01*
G01X6169Y7559D01*
G01X6174Y7566D01*
G01X6179Y7575D01*
G01X6183Y7583D01*
G01X6186Y7592D01*
G01X6188Y7601D01*
G01X6189Y7610D01*
G01X6189Y8488D01*
G01X6188Y8497D01*
G01X6186Y8506D01*
G01X6183Y8515D01*
G01X6179Y8523D01*
G01X6174Y8532D01*
G01X6169Y8539D01*
G01X6163Y8546D01*
G01X6156Y8553D01*
G01X6149Y8559D01*
G01X6142Y8564D01*
G01X6134Y8569D01*
G01X6125Y8573D01*
G01X6116Y8576D01*
G01X6107Y8578D01*
G01X6089Y8580D01*
G37*
G36*
G01X7018Y1350D02*
G01X7000Y1351D01*
G01X6981Y1350D01*
G01X6964Y1349D01*
G01X6946Y1347D01*
G01X6928Y1344D01*
G01X6910Y1340D01*
G01X6893Y1336D01*
G01X6876Y1331D01*
G01X6859Y1325D01*
G01X6842Y1318D01*
G01X6826Y1311D01*
G01X6810Y1303D01*
G01X6794Y1294D01*
G01X6778Y1284D01*
G01X6764Y1274D01*
G01X6750Y1263D01*
G01X6722Y1239D01*
G01X6710Y1227D01*
G01X6697Y1213D01*
G01X6686Y1200D01*
G01X6675Y1185D01*
G01X6665Y1171D01*
G01X6655Y1155D01*
G01X6646Y1140D01*
G01X6638Y1123D01*
G01X6631Y1107D01*
G01X6624Y1090D01*
G01X6618Y1073D01*
G01X6613Y1056D01*
G01X6609Y1039D01*
G01X6605Y1021D01*
G01X6602Y1003D01*
G01X6600Y986D01*
G01X6599Y967D01*
G01X6598Y950D01*
G01X6599Y932D01*
G01X6600Y913D01*
G01X6602Y896D01*
G01X6605Y878D01*
G01X6609Y860D01*
G01X6613Y843D01*
G01X6618Y826D01*
G01X6624Y809D01*
G01X6631Y792D01*
G01X6638Y776D01*
G01X6646Y759D01*
G01X6655Y744D01*
G01X6665Y728D01*
G01X6675Y714D01*
G01X6697Y686D01*
G01X6710Y672D01*
G01X6722Y660D01*
G01X6750Y636D01*
G01X6764Y625D01*
G01X6778Y615D01*
G01X6794Y605D01*
G01X6810Y596D01*
G01X6826Y588D01*
G01X6842Y581D01*
G01X6859Y574D01*
G01X6876Y568D01*
G01X6893Y563D01*
G01X6910Y559D01*
G01X6928Y555D01*
G01X6946Y552D01*
G01X6964Y550D01*
G01X6981Y549D01*
G01X7000Y548D01*
G01X7018Y549D01*
G01X7035Y550D01*
G01X7053Y552D01*
G01X7071Y555D01*
G01X7089Y559D01*
G01X7106Y563D01*
G01X7123Y568D01*
G01X7140Y574D01*
G01X7157Y581D01*
G01X7173Y588D01*
G01X7189Y596D01*
G01X7205Y605D01*
G01X7221Y615D01*
G01X7235Y625D01*
G01X7250Y636D01*
G01X7263Y648D01*
G01X7277Y660D01*
G01X7289Y672D01*
G01X7302Y686D01*
G01X7324Y714D01*
G01X7334Y728D01*
G01X7344Y744D01*
G01X7353Y759D01*
G01X7361Y776D01*
G01X7368Y792D01*
G01X7375Y809D01*
G01X7381Y826D01*
G01X7386Y843D01*
G01X7390Y860D01*
G01X7394Y878D01*
G01X7397Y896D01*
G01X7399Y913D01*
G01X7400Y932D01*
G01X7401Y950D01*
G01X7400Y967D01*
G01X7399Y986D01*
G01X7397Y1003D01*
G01X7394Y1021D01*
G01X7390Y1039D01*
G01X7386Y1056D01*
G01X7381Y1073D01*
G01X7375Y1090D01*
G01X7368Y1107D01*
G01X7361Y1123D01*
G01X7353Y1140D01*
G01X7344Y1155D01*
G01X7334Y1171D01*
G01X7324Y1185D01*
G01X7313Y1200D01*
G01X7302Y1213D01*
G01X7289Y1227D01*
G01X7277Y1239D01*
G01X7263Y1251D01*
G01X7250Y1263D01*
G01X7235Y1274D01*
G01X7221Y1284D01*
G01X7205Y1294D01*
G01X7189Y1303D01*
G01X7173Y1311D01*
G01X7157Y1318D01*
G01X7140Y1325D01*
G01X7123Y1331D01*
G01X7106Y1336D01*
G01X7089Y1340D01*
G01X7071Y1344D01*
G01X7053Y1347D01*
G01X7035Y1349D01*
G01X7018Y1350D01*
G37*
G36*
G01X12089Y8580D02*
G01X11611Y8580D01*
G01X11593Y8578D01*
G01X11584Y8576D01*
G01X11575Y8573D01*
G01X11567Y8569D01*
G01X11558Y8564D01*
G01X11551Y8559D01*
G01X11543Y8553D01*
G01X11531Y8539D01*
G01X11526Y8532D01*
G01X11521Y8523D01*
G01X11517Y8515D01*
G01X11514Y8506D01*
G01X11512Y8497D01*
G01X11511Y8488D01*
G01X11510Y8478D01*
G01X11510Y7619D01*
G01X11512Y7601D01*
G01X11514Y7592D01*
G01X11517Y7583D01*
G01X11521Y7575D01*
G01X11526Y7566D01*
G01X11531Y7559D01*
G01X11537Y7551D01*
G01X11543Y7545D01*
G01X11551Y7539D01*
G01X11558Y7534D01*
G01X11567Y7529D01*
G01X11575Y7525D01*
G01X11584Y7522D01*
G01X11593Y7520D01*
G01X11602Y7519D01*
G01X12098Y7519D01*
G01X12107Y7520D01*
G01X12116Y7522D01*
G01X12125Y7525D01*
G01X12134Y7529D01*
G01X12142Y7534D01*
G01X12149Y7539D01*
G01X12163Y7551D01*
G01X12169Y7559D01*
G01X12174Y7566D01*
G01X12179Y7575D01*
G01X12183Y7583D01*
G01X12186Y7592D01*
G01X12188Y7601D01*
G01X12189Y7610D01*
G01X12189Y8488D01*
G01X12188Y8497D01*
G01X12186Y8506D01*
G01X12183Y8515D01*
G01X12179Y8523D01*
G01X12174Y8532D01*
G01X12169Y8539D01*
G01X12163Y8546D01*
G01X12156Y8553D01*
G01X12149Y8559D01*
G01X12142Y8564D01*
G01X12134Y8569D01*
G01X12125Y8573D01*
G01X12116Y8576D01*
G01X12107Y8578D01*
G01X12089Y8580D01*
G37*
G36*
G01X3088Y8580D02*
G01X2611Y8580D01*
G01X2593Y8578D01*
G01X2584Y8576D01*
G01X2575Y8573D01*
G01X2567Y8569D01*
G01X2558Y8564D01*
G01X2551Y8559D01*
G01X2544Y8553D01*
G01X2537Y8546D01*
G01X2531Y8539D01*
G01X2526Y8532D01*
G01X2521Y8523D01*
G01X2517Y8515D01*
G01X2514Y8506D01*
G01X2512Y8497D01*
G01X2511Y8488D01*
G01X2511Y7610D01*
G01X2512Y7601D01*
G01X2514Y7592D01*
G01X2517Y7583D01*
G01X2521Y7575D01*
G01X2526Y7566D01*
G01X2531Y7559D01*
G01X2537Y7551D01*
G01X2551Y7539D01*
G01X2558Y7534D01*
G01X2567Y7529D01*
G01X2575Y7525D01*
G01X2584Y7522D01*
G01X2593Y7520D01*
G01X2602Y7519D01*
G01X3098Y7519D01*
G01X3107Y7520D01*
G01X3116Y7522D01*
G01X3125Y7525D01*
G01X3134Y7529D01*
G01X3142Y7534D01*
G01X3149Y7539D01*
G01X3157Y7545D01*
G01X3163Y7551D01*
G01X3169Y7559D01*
G01X3174Y7566D01*
G01X3179Y7575D01*
G01X3183Y7583D01*
G01X3186Y7592D01*
G01X3188Y7601D01*
G01X3190Y7619D01*
G01X3190Y8478D01*
G01X3189Y8488D01*
G01X3188Y8497D01*
G01X3186Y8506D01*
G01X3183Y8515D01*
G01X3179Y8523D01*
G01X3174Y8532D01*
G01X3169Y8539D01*
G01X3157Y8553D01*
G01X3149Y8559D01*
G01X3142Y8564D01*
G01X3134Y8569D01*
G01X3125Y8573D01*
G01X3116Y8576D01*
G01X3107Y8578D01*
G01X3098Y8579D01*
G01X3088Y8580D01*
G37*
G36*
G01X9089Y8580D02*
G01X8611Y8580D01*
G01X8593Y8578D01*
G01X8584Y8576D01*
G01X8575Y8573D01*
G01X8567Y8569D01*
G01X8558Y8564D01*
G01X8551Y8559D01*
G01X8543Y8553D01*
G01X8531Y8539D01*
G01X8526Y8532D01*
G01X8521Y8523D01*
G01X8517Y8515D01*
G01X8514Y8506D01*
G01X8512Y8497D01*
G01X8511Y8488D01*
G01X8510Y8478D01*
G01X8510Y7619D01*
G01X8512Y7601D01*
G01X8514Y7592D01*
G01X8517Y7583D01*
G01X8521Y7575D01*
G01X8526Y7566D01*
G01X8531Y7559D01*
G01X8537Y7551D01*
G01X8543Y7545D01*
G01X8551Y7539D01*
G01X8558Y7534D01*
G01X8567Y7529D01*
G01X8575Y7525D01*
G01X8584Y7522D01*
G01X8593Y7520D01*
G01X8602Y7519D01*
G01X9098Y7519D01*
G01X9107Y7520D01*
G01X9116Y7522D01*
G01X9125Y7525D01*
G01X9134Y7529D01*
G01X9142Y7534D01*
G01X9149Y7539D01*
G01X9163Y7551D01*
G01X9169Y7559D01*
G01X9174Y7566D01*
G01X9179Y7575D01*
G01X9183Y7583D01*
G01X9186Y7592D01*
G01X9188Y7601D01*
G01X9189Y7610D01*
G01X9189Y8488D01*
G01X9188Y8497D01*
G01X9186Y8506D01*
G01X9183Y8515D01*
G01X9179Y8523D01*
G01X9174Y8532D01*
G01X9169Y8539D01*
G01X9163Y8546D01*
G01X9156Y8553D01*
G01X9149Y8559D01*
G01X9142Y8564D01*
G01X9134Y8569D01*
G01X9125Y8573D01*
G01X9116Y8576D01*
G01X9107Y8578D01*
G01X9089Y8580D01*
G37*
G36*
G01X2088Y8580D02*
G01X1611Y8580D01*
G01X1593Y8578D01*
G01X1584Y8576D01*
G01X1575Y8573D01*
G01X1567Y8569D01*
G01X1558Y8564D01*
G01X1551Y8559D01*
G01X1544Y8553D01*
G01X1537Y8546D01*
G01X1531Y8539D01*
G01X1526Y8532D01*
G01X1521Y8523D01*
G01X1517Y8515D01*
G01X1514Y8506D01*
G01X1512Y8497D01*
G01X1511Y8488D01*
G01X1511Y7610D01*
G01X1512Y7601D01*
G01X1514Y7592D01*
G01X1517Y7583D01*
G01X1521Y7575D01*
G01X1526Y7566D01*
G01X1531Y7559D01*
G01X1537Y7551D01*
G01X1551Y7539D01*
G01X1558Y7534D01*
G01X1567Y7529D01*
G01X1575Y7525D01*
G01X1584Y7522D01*
G01X1593Y7520D01*
G01X1602Y7519D01*
G01X2098Y7519D01*
G01X2107Y7520D01*
G01X2116Y7522D01*
G01X2125Y7525D01*
G01X2134Y7529D01*
G01X2142Y7534D01*
G01X2149Y7539D01*
G01X2157Y7545D01*
G01X2163Y7551D01*
G01X2169Y7559D01*
G01X2174Y7566D01*
G01X2179Y7575D01*
G01X2183Y7583D01*
G01X2186Y7592D01*
G01X2188Y7601D01*
G01X2190Y7619D01*
G01X2190Y8478D01*
G01X2189Y8488D01*
G01X2188Y8497D01*
G01X2186Y8506D01*
G01X2183Y8515D01*
G01X2179Y8523D01*
G01X2174Y8532D01*
G01X2169Y8539D01*
G01X2157Y8553D01*
G01X2149Y8559D01*
G01X2142Y8564D01*
G01X2134Y8569D01*
G01X2125Y8573D01*
G01X2116Y8576D01*
G01X2107Y8578D01*
G01X2098Y8579D01*
G01X2088Y8580D01*
G37*
G36*
G01X15089Y8580D02*
G01X14611Y8580D01*
G01X14593Y8578D01*
G01X14584Y8576D01*
G01X14575Y8573D01*
G01X14567Y8569D01*
G01X14558Y8564D01*
G01X14551Y8559D01*
G01X14543Y8553D01*
G01X14531Y8539D01*
G01X14526Y8532D01*
G01X14521Y8523D01*
G01X14517Y8515D01*
G01X14514Y8506D01*
G01X14512Y8497D01*
G01X14511Y8488D01*
G01X14510Y8478D01*
G01X14510Y7619D01*
G01X14512Y7601D01*
G01X14514Y7592D01*
G01X14517Y7583D01*
G01X14521Y7575D01*
G01X14526Y7566D01*
G01X14531Y7559D01*
G01X14537Y7551D01*
G01X14543Y7545D01*
G01X14551Y7539D01*
G01X14558Y7534D01*
G01X14567Y7529D01*
G01X14575Y7525D01*
G01X14584Y7522D01*
G01X14593Y7520D01*
G01X14602Y7519D01*
G01X15098Y7519D01*
G01X15107Y7520D01*
G01X15116Y7522D01*
G01X15125Y7525D01*
G01X15134Y7529D01*
G01X15142Y7534D01*
G01X15149Y7539D01*
G01X15163Y7551D01*
G01X15169Y7559D01*
G01X15174Y7566D01*
G01X15179Y7575D01*
G01X15183Y7583D01*
G01X15186Y7592D01*
G01X15188Y7601D01*
G01X15189Y7610D01*
G01X15189Y8488D01*
G01X15188Y8497D01*
G01X15186Y8506D01*
G01X15183Y8515D01*
G01X15179Y8523D01*
G01X15174Y8532D01*
G01X15169Y8539D01*
G01X15163Y8546D01*
G01X15156Y8553D01*
G01X15149Y8559D01*
G01X15142Y8564D01*
G01X15134Y8569D01*
G01X15125Y8573D01*
G01X15116Y8576D01*
G01X15107Y8578D01*
G01X15089Y8580D01*
G37*
G36*
G01X10089Y8580D02*
G01X9611Y8580D01*
G01X9593Y8578D01*
G01X9584Y8576D01*
G01X9575Y8573D01*
G01X9567Y8569D01*
G01X9558Y8564D01*
G01X9551Y8559D01*
G01X9543Y8553D01*
G01X9531Y8539D01*
G01X9526Y8532D01*
G01X9521Y8523D01*
G01X9517Y8515D01*
G01X9514Y8506D01*
G01X9512Y8497D01*
G01X9511Y8488D01*
G01X9510Y8478D01*
G01X9510Y7619D01*
G01X9512Y7601D01*
G01X9514Y7592D01*
G01X9517Y7583D01*
G01X9521Y7575D01*
G01X9526Y7566D01*
G01X9531Y7559D01*
G01X9537Y7551D01*
G01X9543Y7545D01*
G01X9551Y7539D01*
G01X9558Y7534D01*
G01X9567Y7529D01*
G01X9575Y7525D01*
G01X9584Y7522D01*
G01X9593Y7520D01*
G01X9602Y7519D01*
G01X10098Y7519D01*
G01X10107Y7520D01*
G01X10116Y7522D01*
G01X10125Y7525D01*
G01X10134Y7529D01*
G01X10142Y7534D01*
G01X10149Y7539D01*
G01X10163Y7551D01*
G01X10169Y7559D01*
G01X10174Y7566D01*
G01X10179Y7575D01*
G01X10183Y7583D01*
G01X10186Y7592D01*
G01X10188Y7601D01*
G01X10189Y7610D01*
G01X10189Y8488D01*
G01X10188Y8497D01*
G01X10186Y8506D01*
G01X10183Y8515D01*
G01X10179Y8523D01*
G01X10174Y8532D01*
G01X10169Y8539D01*
G01X10163Y8546D01*
G01X10156Y8553D01*
G01X10149Y8559D01*
G01X10142Y8564D01*
G01X10134Y8569D01*
G01X10125Y8573D01*
G01X10116Y8576D01*
G01X10107Y8578D01*
G01X10089Y8580D01*
G37*
G36*
G01X14089Y8580D02*
G01X13611Y8580D01*
G01X13593Y8578D01*
G01X13584Y8576D01*
G01X13575Y8573D01*
G01X13567Y8569D01*
G01X13558Y8564D01*
G01X13551Y8559D01*
G01X13543Y8553D01*
G01X13531Y8539D01*
G01X13526Y8532D01*
G01X13521Y8523D01*
G01X13517Y8515D01*
G01X13514Y8506D01*
G01X13512Y8497D01*
G01X13511Y8488D01*
G01X13510Y8478D01*
G01X13510Y7619D01*
G01X13512Y7601D01*
G01X13514Y7592D01*
G01X13517Y7583D01*
G01X13521Y7575D01*
G01X13526Y7566D01*
G01X13531Y7559D01*
G01X13537Y7551D01*
G01X13543Y7545D01*
G01X13551Y7539D01*
G01X13558Y7534D01*
G01X13567Y7529D01*
G01X13575Y7525D01*
G01X13584Y7522D01*
G01X13593Y7520D01*
G01X13602Y7519D01*
G01X14098Y7519D01*
G01X14107Y7520D01*
G01X14116Y7522D01*
G01X14125Y7525D01*
G01X14134Y7529D01*
G01X14142Y7534D01*
G01X14149Y7539D01*
G01X14163Y7551D01*
G01X14169Y7559D01*
G01X14174Y7566D01*
G01X14179Y7575D01*
G01X14183Y7583D01*
G01X14186Y7592D01*
G01X14188Y7601D01*
G01X14189Y7610D01*
G01X14189Y8488D01*
G01X14188Y8497D01*
G01X14186Y8506D01*
G01X14183Y8515D01*
G01X14179Y8523D01*
G01X14174Y8532D01*
G01X14169Y8539D01*
G01X14163Y8546D01*
G01X14156Y8553D01*
G01X14149Y8559D01*
G01X14142Y8564D01*
G01X14134Y8569D01*
G01X14125Y8573D01*
G01X14116Y8576D01*
G01X14107Y8578D01*
G01X14089Y8580D01*
G37*
G36*
G01X8089Y8580D02*
G01X7611Y8580D01*
G01X7593Y8578D01*
G01X7584Y8576D01*
G01X7575Y8573D01*
G01X7567Y8569D01*
G01X7558Y8564D01*
G01X7551Y8559D01*
G01X7543Y8553D01*
G01X7531Y8539D01*
G01X7526Y8532D01*
G01X7521Y8523D01*
G01X7517Y8515D01*
G01X7514Y8506D01*
G01X7512Y8497D01*
G01X7511Y8488D01*
G01X7510Y8478D01*
G01X7510Y7619D01*
G01X7512Y7601D01*
G01X7514Y7592D01*
G01X7517Y7583D01*
G01X7521Y7575D01*
G01X7526Y7566D01*
G01X7531Y7559D01*
G01X7537Y7551D01*
G01X7543Y7545D01*
G01X7551Y7539D01*
G01X7558Y7534D01*
G01X7567Y7529D01*
G01X7575Y7525D01*
G01X7584Y7522D01*
G01X7593Y7520D01*
G01X7602Y7519D01*
G01X8098Y7519D01*
G01X8107Y7520D01*
G01X8116Y7522D01*
G01X8125Y7525D01*
G01X8134Y7529D01*
G01X8142Y7534D01*
G01X8149Y7539D01*
G01X8163Y7551D01*
G01X8169Y7559D01*
G01X8174Y7566D01*
G01X8179Y7575D01*
G01X8183Y7583D01*
G01X8186Y7592D01*
G01X8188Y7601D01*
G01X8189Y7610D01*
G01X8189Y8488D01*
G01X8188Y8497D01*
G01X8186Y8506D01*
G01X8183Y8515D01*
G01X8179Y8523D01*
G01X8174Y8532D01*
G01X8169Y8539D01*
G01X8163Y8546D01*
G01X8156Y8553D01*
G01X8149Y8559D01*
G01X8142Y8564D01*
G01X8134Y8569D01*
G01X8125Y8573D01*
G01X8116Y8576D01*
G01X8107Y8578D01*
G01X8089Y8580D01*
G37*
G36*
G01X5089Y8580D02*
G01X4611Y8580D01*
G01X4593Y8578D01*
G01X4584Y8576D01*
G01X4575Y8573D01*
G01X4567Y8569D01*
G01X4558Y8564D01*
G01X4551Y8559D01*
G01X4544Y8553D01*
G01X4537Y8546D01*
G01X4531Y8539D01*
G01X4526Y8532D01*
G01X4521Y8523D01*
G01X4517Y8515D01*
G01X4514Y8506D01*
G01X4512Y8497D01*
G01X4511Y8488D01*
G01X4511Y7610D01*
G01X4512Y7601D01*
G01X4514Y7592D01*
G01X4517Y7583D01*
G01X4521Y7575D01*
G01X4526Y7566D01*
G01X4531Y7559D01*
G01X4537Y7551D01*
G01X4551Y7539D01*
G01X4558Y7534D01*
G01X4567Y7529D01*
G01X4575Y7525D01*
G01X4584Y7522D01*
G01X4593Y7520D01*
G01X4602Y7519D01*
G01X5098Y7519D01*
G01X5107Y7520D01*
G01X5116Y7522D01*
G01X5125Y7525D01*
G01X5134Y7529D01*
G01X5142Y7534D01*
G01X5149Y7539D01*
G01X5163Y7551D01*
G01X5169Y7559D01*
G01X5174Y7566D01*
G01X5179Y7575D01*
G01X5183Y7583D01*
G01X5186Y7592D01*
G01X5188Y7601D01*
G01X5189Y7610D01*
G01X5189Y8488D01*
G01X5188Y8497D01*
G01X5186Y8506D01*
G01X5183Y8515D01*
G01X5179Y8523D01*
G01X5174Y8532D01*
G01X5169Y8539D01*
G01X5163Y8546D01*
G01X5156Y8553D01*
G01X5149Y8559D01*
G01X5142Y8564D01*
G01X5134Y8569D01*
G01X5125Y8573D01*
G01X5116Y8576D01*
G01X5107Y8578D01*
G01X5089Y8580D01*
G37*
G36*
G01X16018Y8850D02*
G01X16000Y8851D01*
G01X15981Y8850D01*
G01X15964Y8849D01*
G01X15946Y8847D01*
G01X15928Y8844D01*
G01X15910Y8840D01*
G01X15893Y8836D01*
G01X15876Y8831D01*
G01X15859Y8825D01*
G01X15842Y8818D01*
G01X15826Y8811D01*
G01X15810Y8803D01*
G01X15794Y8794D01*
G01X15778Y8784D01*
G01X15764Y8774D01*
G01X15750Y8763D01*
G01X15722Y8739D01*
G01X15710Y8727D01*
G01X15697Y8713D01*
G01X15686Y8700D01*
G01X15675Y8685D01*
G01X15665Y8671D01*
G01X15655Y8655D01*
G01X15646Y8640D01*
G01X15638Y8623D01*
G01X15631Y8607D01*
G01X15624Y8590D01*
G01X15618Y8573D01*
G01X15613Y8556D01*
G01X15609Y8539D01*
G01X15605Y8521D01*
G01X15602Y8503D01*
G01X15600Y8486D01*
G01X15599Y8467D01*
G01X15598Y8450D01*
G01X15599Y8432D01*
G01X15600Y8413D01*
G01X15602Y8396D01*
G01X15605Y8378D01*
G01X15609Y8360D01*
G01X15613Y8343D01*
G01X15618Y8326D01*
G01X15624Y8309D01*
G01X15631Y8292D01*
G01X15638Y8276D01*
G01X15646Y8259D01*
G01X15655Y8244D01*
G01X15665Y8228D01*
G01X15675Y8214D01*
G01X15697Y8186D01*
G01X15710Y8172D01*
G01X15722Y8160D01*
G01X15750Y8136D01*
G01X15764Y8125D01*
G01X15778Y8115D01*
G01X15794Y8105D01*
G01X15810Y8096D01*
G01X15826Y8088D01*
G01X15842Y8081D01*
G01X15859Y8074D01*
G01X15876Y8068D01*
G01X15893Y8063D01*
G01X15910Y8059D01*
G01X15928Y8055D01*
G01X15946Y8052D01*
G01X15964Y8050D01*
G01X15981Y8049D01*
G01X16000Y8048D01*
G01X16018Y8049D01*
G01X16035Y8050D01*
G01X16053Y8052D01*
G01X16071Y8055D01*
G01X16089Y8059D01*
G01X16106Y8063D01*
G01X16123Y8068D01*
G01X16140Y8074D01*
G01X16157Y8081D01*
G01X16173Y8088D01*
G01X16189Y8096D01*
G01X16205Y8105D01*
G01X16221Y8115D01*
G01X16235Y8125D01*
G01X16250Y8136D01*
G01X16263Y8148D01*
G01X16277Y8160D01*
G01X16289Y8172D01*
G01X16302Y8186D01*
G01X16324Y8214D01*
G01X16334Y8228D01*
G01X16344Y8244D01*
G01X16353Y8259D01*
G01X16361Y8276D01*
G01X16368Y8292D01*
G01X16375Y8309D01*
G01X16381Y8326D01*
G01X16386Y8343D01*
G01X16390Y8360D01*
G01X16394Y8378D01*
G01X16397Y8396D01*
G01X16399Y8413D01*
G01X16400Y8432D01*
G01X16401Y8450D01*
G01X16400Y8467D01*
G01X16399Y8486D01*
G01X16397Y8503D01*
G01X16394Y8521D01*
G01X16390Y8539D01*
G01X16386Y8556D01*
G01X16381Y8573D01*
G01X16375Y8590D01*
G01X16368Y8607D01*
G01X16361Y8623D01*
G01X16353Y8640D01*
G01X16344Y8655D01*
G01X16334Y8671D01*
G01X16324Y8685D01*
G01X16313Y8700D01*
G01X16302Y8713D01*
G01X16289Y8727D01*
G01X16277Y8739D01*
G01X16263Y8751D01*
G01X16250Y8763D01*
G01X16235Y8774D01*
G01X16221Y8784D01*
G01X16205Y8794D01*
G01X16189Y8803D01*
G01X16173Y8811D01*
G01X16157Y8818D01*
G01X16140Y8825D01*
G01X16123Y8831D01*
G01X16106Y8836D01*
G01X16089Y8840D01*
G01X16071Y8844D01*
G01X16053Y8847D01*
G01X16035Y8849D01*
G01X16018Y8850D01*
G37*
G36*
G01X17018Y8850D02*
G01X17000Y8851D01*
G01X16981Y8850D01*
G01X16964Y8849D01*
G01X16946Y8847D01*
G01X16928Y8844D01*
G01X16910Y8840D01*
G01X16893Y8836D01*
G01X16876Y8831D01*
G01X16859Y8825D01*
G01X16842Y8818D01*
G01X16826Y8811D01*
G01X16810Y8803D01*
G01X16794Y8794D01*
G01X16778Y8784D01*
G01X16764Y8774D01*
G01X16750Y8763D01*
G01X16722Y8739D01*
G01X16710Y8727D01*
G01X16697Y8713D01*
G01X16686Y8700D01*
G01X16675Y8685D01*
G01X16665Y8671D01*
G01X16655Y8655D01*
G01X16646Y8640D01*
G01X16638Y8623D01*
G01X16631Y8607D01*
G01X16624Y8590D01*
G01X16618Y8573D01*
G01X16613Y8556D01*
G01X16609Y8539D01*
G01X16605Y8521D01*
G01X16602Y8503D01*
G01X16600Y8486D01*
G01X16599Y8467D01*
G01X16598Y8450D01*
G01X16599Y8432D01*
G01X16600Y8413D01*
G01X16602Y8396D01*
G01X16605Y8378D01*
G01X16609Y8360D01*
G01X16613Y8343D01*
G01X16618Y8326D01*
G01X16624Y8309D01*
G01X16631Y8292D01*
G01X16638Y8276D01*
G01X16646Y8259D01*
G01X16655Y8244D01*
G01X16665Y8228D01*
G01X16675Y8214D01*
G01X16697Y8186D01*
G01X16710Y8172D01*
G01X16722Y8160D01*
G01X16750Y8136D01*
G01X16764Y8125D01*
G01X16778Y8115D01*
G01X16794Y8105D01*
G01X16810Y8096D01*
G01X16826Y8088D01*
G01X16842Y8081D01*
G01X16859Y8074D01*
G01X16876Y8068D01*
G01X16893Y8063D01*
G01X16910Y8059D01*
G01X16928Y8055D01*
G01X16946Y8052D01*
G01X16964Y8050D01*
G01X16981Y8049D01*
G01X17000Y8048D01*
G01X17018Y8049D01*
G01X17035Y8050D01*
G01X17053Y8052D01*
G01X17071Y8055D01*
G01X17089Y8059D01*
G01X17106Y8063D01*
G01X17123Y8068D01*
G01X17140Y8074D01*
G01X17157Y8081D01*
G01X17173Y8088D01*
G01X17189Y8096D01*
G01X17205Y8105D01*
G01X17221Y8115D01*
G01X17235Y8125D01*
G01X17250Y8136D01*
G01X17263Y8148D01*
G01X17277Y8160D01*
G01X17289Y8172D01*
G01X17302Y8186D01*
G01X17324Y8214D01*
G01X17334Y8228D01*
G01X17344Y8244D01*
G01X17353Y8259D01*
G01X17361Y8276D01*
G01X17368Y8292D01*
G01X17375Y8309D01*
G01X17381Y8326D01*
G01X17386Y8343D01*
G01X17390Y8360D01*
G01X17394Y8378D01*
G01X17397Y8396D01*
G01X17399Y8413D01*
G01X17400Y8432D01*
G01X17401Y8450D01*
G01X17400Y8467D01*
G01X17399Y8486D01*
G01X17397Y8503D01*
G01X17394Y8521D01*
G01X17390Y8539D01*
G01X17386Y8556D01*
G01X17381Y8573D01*
G01X17375Y8590D01*
G01X17368Y8607D01*
G01X17361Y8623D01*
G01X17353Y8640D01*
G01X17344Y8655D01*
G01X17334Y8671D01*
G01X17324Y8685D01*
G01X17313Y8700D01*
G01X17302Y8713D01*
G01X17289Y8727D01*
G01X17277Y8739D01*
G01X17263Y8751D01*
G01X17250Y8763D01*
G01X17235Y8774D01*
G01X17221Y8784D01*
G01X17205Y8794D01*
G01X17189Y8803D01*
G01X17173Y8811D01*
G01X17157Y8818D01*
G01X17140Y8825D01*
G01X17123Y8831D01*
G01X17106Y8836D01*
G01X17089Y8840D01*
G01X17071Y8844D01*
G01X17053Y8847D01*
G01X17035Y8849D01*
G01X17018Y8850D01*
G37*
G36*
G01X18360Y8275D02*
G01X18175Y8275D01*
G01X18175Y8089D01*
G01X18192Y8098D01*
G01X18208Y8107D01*
G01X18224Y8117D01*
G01X18240Y8128D01*
G01X18255Y8140D01*
G01X18283Y8166D01*
G01X18309Y8194D01*
G01X18321Y8209D01*
G01X18332Y8225D01*
G01X18352Y8257D01*
G01X18360Y8275D01*
G37*
G36*
G01X17825Y8275D02*
G01X17639Y8275D01*
G01X17647Y8257D01*
G01X17667Y8225D01*
G01X17678Y8209D01*
G01X17690Y8194D01*
G01X17716Y8166D01*
G01X17744Y8140D01*
G01X17759Y8128D01*
G01X17775Y8117D01*
G01X17791Y8107D01*
G01X17807Y8098D01*
G01X17825Y8089D01*
G01X17825Y8275D01*
G37*
G36*
G01X18192Y8801D02*
G01X18175Y8810D01*
G01X18175Y8625D01*
G01X18360Y8625D01*
G01X18352Y8642D01*
G01X18332Y8674D01*
G01X18321Y8690D01*
G01X18309Y8705D01*
G01X18283Y8733D01*
G01X18255Y8759D01*
G01X18240Y8771D01*
G01X18224Y8782D01*
G01X18208Y8792D01*
G01X18192Y8801D01*
G37*
G36*
G01X17825Y8625D02*
G01X17825Y8810D01*
G01X17807Y8801D01*
G01X17791Y8792D01*
G01X17775Y8782D01*
G01X17759Y8771D01*
G01X17744Y8759D01*
G01X17716Y8733D01*
G01X17690Y8705D01*
G01X17678Y8690D01*
G01X17667Y8674D01*
G01X17647Y8642D01*
G01X17639Y8625D01*
G01X17825Y8625D01*
G37*
G36*
G01X17018Y9950D02*
G01X17000Y9951D01*
G01X16981Y9950D01*
G01X16964Y9949D01*
G01X16946Y9947D01*
G01X16928Y9944D01*
G01X16910Y9940D01*
G01X16893Y9936D01*
G01X16876Y9931D01*
G01X16859Y9925D01*
G01X16842Y9918D01*
G01X16826Y9911D01*
G01X16810Y9903D01*
G01X16794Y9894D01*
G01X16778Y9884D01*
G01X16764Y9874D01*
G01X16750Y9863D01*
G01X16722Y9839D01*
G01X16710Y9827D01*
G01X16697Y9813D01*
G01X16686Y9800D01*
G01X16675Y9785D01*
G01X16665Y9771D01*
G01X16655Y9755D01*
G01X16646Y9740D01*
G01X16638Y9723D01*
G01X16631Y9707D01*
G01X16624Y9690D01*
G01X16618Y9673D01*
G01X16613Y9656D01*
G01X16609Y9639D01*
G01X16605Y9621D01*
G01X16602Y9603D01*
G01X16600Y9586D01*
G01X16599Y9567D01*
G01X16598Y9550D01*
G01X16599Y9532D01*
G01X16600Y9513D01*
G01X16602Y9496D01*
G01X16605Y9478D01*
G01X16609Y9460D01*
G01X16613Y9443D01*
G01X16618Y9426D01*
G01X16624Y9409D01*
G01X16631Y9392D01*
G01X16638Y9376D01*
G01X16646Y9359D01*
G01X16655Y9344D01*
G01X16665Y9328D01*
G01X16675Y9314D01*
G01X16697Y9286D01*
G01X16710Y9272D01*
G01X16722Y9260D01*
G01X16750Y9236D01*
G01X16764Y9225D01*
G01X16778Y9215D01*
G01X16794Y9205D01*
G01X16810Y9196D01*
G01X16826Y9188D01*
G01X16842Y9181D01*
G01X16859Y9174D01*
G01X16876Y9168D01*
G01X16893Y9163D01*
G01X16910Y9159D01*
G01X16928Y9155D01*
G01X16946Y9152D01*
G01X16964Y9150D01*
G01X16981Y9149D01*
G01X17000Y9148D01*
G01X17018Y9149D01*
G01X17035Y9150D01*
G01X17053Y9152D01*
G01X17071Y9155D01*
G01X17089Y9159D01*
G01X17106Y9163D01*
G01X17123Y9168D01*
G01X17140Y9174D01*
G01X17157Y9181D01*
G01X17173Y9188D01*
G01X17189Y9196D01*
G01X17205Y9205D01*
G01X17221Y9215D01*
G01X17235Y9225D01*
G01X17250Y9236D01*
G01X17263Y9248D01*
G01X17277Y9260D01*
G01X17289Y9272D01*
G01X17302Y9286D01*
G01X17324Y9314D01*
G01X17334Y9328D01*
G01X17344Y9344D01*
G01X17353Y9359D01*
G01X17361Y9376D01*
G01X17368Y9392D01*
G01X17375Y9409D01*
G01X17381Y9426D01*
G01X17386Y9443D01*
G01X17390Y9460D01*
G01X17394Y9478D01*
G01X17397Y9496D01*
G01X17399Y9513D01*
G01X17400Y9532D01*
G01X17401Y9550D01*
G01X17400Y9567D01*
G01X17399Y9586D01*
G01X17397Y9603D01*
G01X17394Y9621D01*
G01X17390Y9639D01*
G01X17386Y9656D01*
G01X17381Y9673D01*
G01X17375Y9690D01*
G01X17368Y9707D01*
G01X17361Y9723D01*
G01X17353Y9740D01*
G01X17344Y9755D01*
G01X17334Y9771D01*
G01X17324Y9785D01*
G01X17313Y9800D01*
G01X17302Y9813D01*
G01X17289Y9827D01*
G01X17277Y9839D01*
G01X17263Y9851D01*
G01X17250Y9863D01*
G01X17235Y9874D01*
G01X17221Y9884D01*
G01X17205Y9894D01*
G01X17189Y9903D01*
G01X17173Y9911D01*
G01X17157Y9918D01*
G01X17140Y9925D01*
G01X17123Y9931D01*
G01X17106Y9936D01*
G01X17089Y9940D01*
G01X17071Y9944D01*
G01X17053Y9947D01*
G01X17035Y9949D01*
G01X17018Y9950D01*
G37*
G36*
G01X16018Y9950D02*
G01X16000Y9951D01*
G01X15981Y9950D01*
G01X15964Y9949D01*
G01X15946Y9947D01*
G01X15928Y9944D01*
G01X15910Y9940D01*
G01X15893Y9936D01*
G01X15876Y9931D01*
G01X15859Y9925D01*
G01X15842Y9918D01*
G01X15826Y9911D01*
G01X15810Y9903D01*
G01X15794Y9894D01*
G01X15778Y9884D01*
G01X15764Y9874D01*
G01X15750Y9863D01*
G01X15722Y9839D01*
G01X15710Y9827D01*
G01X15697Y9813D01*
G01X15686Y9800D01*
G01X15675Y9785D01*
G01X15665Y9771D01*
G01X15655Y9755D01*
G01X15646Y9740D01*
G01X15638Y9723D01*
G01X15631Y9707D01*
G01X15624Y9690D01*
G01X15618Y9673D01*
G01X15613Y9656D01*
G01X15609Y9639D01*
G01X15605Y9621D01*
G01X15602Y9603D01*
G01X15600Y9586D01*
G01X15599Y9567D01*
G01X15598Y9550D01*
G01X15599Y9532D01*
G01X15600Y9513D01*
G01X15602Y9496D01*
G01X15605Y9478D01*
G01X15609Y9460D01*
G01X15613Y9443D01*
G01X15618Y9426D01*
G01X15624Y9409D01*
G01X15631Y9392D01*
G01X15638Y9376D01*
G01X15646Y9359D01*
G01X15655Y9344D01*
G01X15665Y9328D01*
G01X15675Y9314D01*
G01X15697Y9286D01*
G01X15710Y9272D01*
G01X15722Y9260D01*
G01X15750Y9236D01*
G01X15764Y9225D01*
G01X15778Y9215D01*
G01X15794Y9205D01*
G01X15810Y9196D01*
G01X15826Y9188D01*
G01X15842Y9181D01*
G01X15859Y9174D01*
G01X15876Y9168D01*
G01X15893Y9163D01*
G01X15910Y9159D01*
G01X15928Y9155D01*
G01X15946Y9152D01*
G01X15964Y9150D01*
G01X15981Y9149D01*
G01X16000Y9148D01*
G01X16018Y9149D01*
G01X16035Y9150D01*
G01X16053Y9152D01*
G01X16071Y9155D01*
G01X16089Y9159D01*
G01X16106Y9163D01*
G01X16123Y9168D01*
G01X16140Y9174D01*
G01X16157Y9181D01*
G01X16173Y9188D01*
G01X16189Y9196D01*
G01X16205Y9205D01*
G01X16221Y9215D01*
G01X16235Y9225D01*
G01X16250Y9236D01*
G01X16263Y9248D01*
G01X16277Y9260D01*
G01X16289Y9272D01*
G01X16302Y9286D01*
G01X16324Y9314D01*
G01X16334Y9328D01*
G01X16344Y9344D01*
G01X16353Y9359D01*
G01X16361Y9376D01*
G01X16368Y9392D01*
G01X16375Y9409D01*
G01X16381Y9426D01*
G01X16386Y9443D01*
G01X16390Y9460D01*
G01X16394Y9478D01*
G01X16397Y9496D01*
G01X16399Y9513D01*
G01X16400Y9532D01*
G01X16401Y9550D01*
G01X16400Y9567D01*
G01X16399Y9586D01*
G01X16397Y9603D01*
G01X16394Y9621D01*
G01X16390Y9639D01*
G01X16386Y9656D01*
G01X16381Y9673D01*
G01X16375Y9690D01*
G01X16368Y9707D01*
G01X16361Y9723D01*
G01X16353Y9740D01*
G01X16344Y9755D01*
G01X16334Y9771D01*
G01X16324Y9785D01*
G01X16313Y9800D01*
G01X16302Y9813D01*
G01X16289Y9827D01*
G01X16277Y9839D01*
G01X16263Y9851D01*
G01X16250Y9863D01*
G01X16235Y9874D01*
G01X16221Y9884D01*
G01X16205Y9894D01*
G01X16189Y9903D01*
G01X16173Y9911D01*
G01X16157Y9918D01*
G01X16140Y9925D01*
G01X16123Y9931D01*
G01X16106Y9936D01*
G01X16089Y9940D01*
G01X16071Y9944D01*
G01X16053Y9947D01*
G01X16035Y9949D01*
G01X16018Y9950D01*
G37*
G36*
G01X18360Y9375D02*
G01X18175Y9375D01*
G01X18175Y9189D01*
G01X18192Y9198D01*
G01X18208Y9207D01*
G01X18224Y9217D01*
G01X18240Y9228D01*
G01X18255Y9240D01*
G01X18283Y9266D01*
G01X18309Y9294D01*
G01X18321Y9309D01*
G01X18332Y9325D01*
G01X18352Y9357D01*
G01X18360Y9375D01*
G37*
G36*
G01X17825Y9375D02*
G01X17639Y9375D01*
G01X17647Y9357D01*
G01X17667Y9325D01*
G01X17678Y9309D01*
G01X17690Y9294D01*
G01X17716Y9266D01*
G01X17744Y9240D01*
G01X17759Y9228D01*
G01X17775Y9217D01*
G01X17791Y9207D01*
G01X17807Y9198D01*
G01X17825Y9189D01*
G01X17825Y9375D01*
G37*
G36*
G01X10019Y10455D02*
G01X9980Y10455D01*
G01X9942Y10451D01*
G01X9922Y10448D01*
G01X9903Y10445D01*
G01X9885Y10440D01*
G01X9866Y10435D01*
G01X9848Y10429D01*
G01X9812Y10415D01*
G01X9794Y10406D01*
G01X9777Y10397D01*
G01X9761Y10387D01*
G01X9744Y10377D01*
G01X9729Y10365D01*
G01X9714Y10354D01*
G01X9699Y10341D01*
G01X9671Y10315D01*
G01X9658Y10300D01*
G01X9645Y10286D01*
G01X9634Y10270D01*
G01X9622Y10255D01*
G01X9602Y10221D01*
G01X9593Y10205D01*
G01X9577Y10169D01*
G01X9570Y10151D01*
G01X9564Y10133D01*
G01X9559Y10114D01*
G01X9554Y10096D01*
G01X9551Y10076D01*
G01X9548Y10057D01*
G01X9544Y10019D01*
G01X9544Y9980D01*
G01X9548Y9942D01*
G01X9551Y9923D01*
G01X9554Y9903D01*
G01X9559Y9885D01*
G01X9564Y9866D01*
G01X9570Y9848D01*
G01X9577Y9830D01*
G01X9593Y9794D01*
G01X9602Y9778D01*
G01X9622Y9744D01*
G01X9634Y9729D01*
G01X9645Y9713D01*
G01X9658Y9699D01*
G01X9671Y9684D01*
G01X9699Y9658D01*
G01X9714Y9645D01*
G01X9729Y9634D01*
G01X9744Y9622D01*
G01X9761Y9612D01*
G01X9777Y9602D01*
G01X9794Y9593D01*
G01X9812Y9584D01*
G01X9848Y9570D01*
G01X9866Y9564D01*
G01X9885Y9559D01*
G01X9903Y9554D01*
G01X9922Y9551D01*
G01X9942Y9548D01*
G01X9980Y9544D01*
G01X10019Y9544D01*
G01X10057Y9548D01*
G01X10077Y9551D01*
G01X10096Y9554D01*
G01X10114Y9559D01*
G01X10133Y9564D01*
G01X10151Y9570D01*
G01X10187Y9584D01*
G01X10205Y9593D01*
G01X10222Y9602D01*
G01X10238Y9612D01*
G01X10255Y9622D01*
G01X10270Y9634D01*
G01X10285Y9645D01*
G01X10300Y9658D01*
G01X10328Y9684D01*
G01X10341Y9699D01*
G01X10354Y9713D01*
G01X10365Y9729D01*
G01X10377Y9744D01*
G01X10397Y9778D01*
G01X10406Y9794D01*
G01X10422Y9830D01*
G01X10429Y9848D01*
G01X10435Y9866D01*
G01X10440Y9885D01*
G01X10445Y9903D01*
G01X10448Y9923D01*
G01X10451Y9942D01*
G01X10455Y9980D01*
G01X10455Y10019D01*
G01X10451Y10057D01*
G01X10448Y10076D01*
G01X10445Y10096D01*
G01X10440Y10114D01*
G01X10435Y10133D01*
G01X10429Y10151D01*
G01X10422Y10169D01*
G01X10406Y10205D01*
G01X10397Y10221D01*
G01X10377Y10255D01*
G01X10365Y10270D01*
G01X10354Y10286D01*
G01X10341Y10300D01*
G01X10328Y10315D01*
G01X10300Y10341D01*
G01X10285Y10354D01*
G01X10270Y10365D01*
G01X10255Y10377D01*
G01X10238Y10387D01*
G01X10222Y10397D01*
G01X10205Y10406D01*
G01X10187Y10415D01*
G01X10151Y10429D01*
G01X10133Y10435D01*
G01X10114Y10440D01*
G01X10096Y10445D01*
G01X10077Y10448D01*
G01X10057Y10451D01*
G01X10019Y10455D01*
G37*
G36*
G01X11353Y10455D02*
G01X10646Y10455D01*
G01X10636Y10454D01*
G01X10627Y10453D01*
G01X10618Y10451D01*
G01X10609Y10448D01*
G01X10601Y10444D01*
G01X10592Y10439D01*
G01X10585Y10434D01*
G01X10577Y10428D01*
G01X10565Y10414D01*
G01X10560Y10407D01*
G01X10555Y10398D01*
G01X10551Y10390D01*
G01X10548Y10381D01*
G01X10546Y10372D01*
G01X10545Y10363D01*
G01X10544Y10353D01*
G01X10544Y9646D01*
G01X10545Y9636D01*
G01X10546Y9627D01*
G01X10548Y9618D01*
G01X10551Y9609D01*
G01X10555Y9601D01*
G01X10560Y9592D01*
G01X10565Y9585D01*
G01X10577Y9571D01*
G01X10585Y9565D01*
G01X10592Y9560D01*
G01X10601Y9555D01*
G01X10609Y9551D01*
G01X10618Y9548D01*
G01X10627Y9546D01*
G01X10636Y9545D01*
G01X10646Y9544D01*
G01X11353Y9544D01*
G01X11363Y9545D01*
G01X11372Y9546D01*
G01X11381Y9548D01*
G01X11390Y9551D01*
G01X11398Y9555D01*
G01X11407Y9560D01*
G01X11414Y9565D01*
G01X11422Y9571D01*
G01X11434Y9585D01*
G01X11439Y9592D01*
G01X11444Y9601D01*
G01X11448Y9609D01*
G01X11451Y9618D01*
G01X11453Y9627D01*
G01X11454Y9636D01*
G01X11455Y9646D01*
G01X11455Y10353D01*
G01X11454Y10363D01*
G01X11453Y10372D01*
G01X11451Y10381D01*
G01X11448Y10390D01*
G01X11444Y10398D01*
G01X11439Y10407D01*
G01X11434Y10414D01*
G01X11422Y10428D01*
G01X11414Y10434D01*
G01X11407Y10439D01*
G01X11398Y10444D01*
G01X11390Y10448D01*
G01X11381Y10451D01*
G01X11372Y10453D01*
G01X11363Y10454D01*
G01X11353Y10455D01*
G37*
G36*
G01X18192Y9901D02*
G01X18175Y9910D01*
G01X18175Y9725D01*
G01X18360Y9725D01*
G01X18352Y9742D01*
G01X18332Y9774D01*
G01X18321Y9790D01*
G01X18309Y9805D01*
G01X18283Y9833D01*
G01X18255Y9859D01*
G01X18240Y9871D01*
G01X18224Y9882D01*
G01X18208Y9892D01*
G01X18192Y9901D01*
G37*
G36*
G01X17825Y9725D02*
G01X17825Y9910D01*
G01X17807Y9901D01*
G01X17791Y9892D01*
G01X17775Y9882D01*
G01X17759Y9871D01*
G01X17744Y9859D01*
G01X17716Y9833D01*
G01X17690Y9805D01*
G01X17678Y9790D01*
G01X17667Y9774D01*
G01X17647Y9742D01*
G01X17639Y9725D01*
G01X17825Y9725D01*
G37*
G36*
G01X16018Y11050D02*
G01X16000Y11051D01*
G01X15981Y11050D01*
G01X15964Y11049D01*
G01X15946Y11047D01*
G01X15928Y11044D01*
G01X15910Y11040D01*
G01X15893Y11036D01*
G01X15876Y11031D01*
G01X15859Y11025D01*
G01X15842Y11018D01*
G01X15826Y11011D01*
G01X15810Y11003D01*
G01X15794Y10994D01*
G01X15778Y10984D01*
G01X15764Y10974D01*
G01X15750Y10963D01*
G01X15722Y10939D01*
G01X15710Y10927D01*
G01X15697Y10913D01*
G01X15686Y10900D01*
G01X15675Y10885D01*
G01X15665Y10871D01*
G01X15655Y10855D01*
G01X15646Y10840D01*
G01X15638Y10823D01*
G01X15631Y10807D01*
G01X15624Y10790D01*
G01X15618Y10773D01*
G01X15613Y10756D01*
G01X15609Y10739D01*
G01X15605Y10721D01*
G01X15602Y10703D01*
G01X15600Y10686D01*
G01X15599Y10667D01*
G01X15598Y10650D01*
G01X15599Y10632D01*
G01X15600Y10613D01*
G01X15602Y10596D01*
G01X15605Y10578D01*
G01X15609Y10560D01*
G01X15613Y10543D01*
G01X15618Y10526D01*
G01X15624Y10509D01*
G01X15631Y10492D01*
G01X15638Y10476D01*
G01X15646Y10459D01*
G01X15655Y10444D01*
G01X15665Y10428D01*
G01X15675Y10414D01*
G01X15697Y10386D01*
G01X15710Y10372D01*
G01X15722Y10360D01*
G01X15750Y10336D01*
G01X15764Y10325D01*
G01X15778Y10315D01*
G01X15794Y10305D01*
G01X15810Y10296D01*
G01X15826Y10288D01*
G01X15842Y10281D01*
G01X15859Y10274D01*
G01X15876Y10268D01*
G01X15893Y10263D01*
G01X15910Y10259D01*
G01X15928Y10255D01*
G01X15946Y10252D01*
G01X15964Y10250D01*
G01X15981Y10249D01*
G01X16000Y10248D01*
G01X16018Y10249D01*
G01X16035Y10250D01*
G01X16053Y10252D01*
G01X16071Y10255D01*
G01X16089Y10259D01*
G01X16106Y10263D01*
G01X16123Y10268D01*
G01X16140Y10274D01*
G01X16157Y10281D01*
G01X16173Y10288D01*
G01X16189Y10296D01*
G01X16205Y10305D01*
G01X16221Y10315D01*
G01X16235Y10325D01*
G01X16250Y10336D01*
G01X16263Y10348D01*
G01X16277Y10360D01*
G01X16289Y10372D01*
G01X16302Y10386D01*
G01X16324Y10414D01*
G01X16334Y10428D01*
G01X16344Y10444D01*
G01X16353Y10459D01*
G01X16361Y10476D01*
G01X16368Y10492D01*
G01X16375Y10509D01*
G01X16381Y10526D01*
G01X16386Y10543D01*
G01X16390Y10560D01*
G01X16394Y10578D01*
G01X16397Y10596D01*
G01X16399Y10613D01*
G01X16400Y10632D01*
G01X16401Y10650D01*
G01X16400Y10667D01*
G01X16399Y10686D01*
G01X16397Y10703D01*
G01X16394Y10721D01*
G01X16390Y10739D01*
G01X16386Y10756D01*
G01X16381Y10773D01*
G01X16375Y10790D01*
G01X16368Y10807D01*
G01X16361Y10823D01*
G01X16353Y10840D01*
G01X16344Y10855D01*
G01X16334Y10871D01*
G01X16324Y10885D01*
G01X16313Y10900D01*
G01X16302Y10913D01*
G01X16289Y10927D01*
G01X16277Y10939D01*
G01X16263Y10951D01*
G01X16250Y10963D01*
G01X16235Y10974D01*
G01X16221Y10984D01*
G01X16205Y10994D01*
G01X16189Y11003D01*
G01X16173Y11011D01*
G01X16157Y11018D01*
G01X16140Y11025D01*
G01X16123Y11031D01*
G01X16106Y11036D01*
G01X16089Y11040D01*
G01X16071Y11044D01*
G01X16053Y11047D01*
G01X16035Y11049D01*
G01X16018Y11050D01*
G37*
G36*
G01X17018Y11050D02*
G01X17000Y11051D01*
G01X16981Y11050D01*
G01X16964Y11049D01*
G01X16946Y11047D01*
G01X16928Y11044D01*
G01X16910Y11040D01*
G01X16893Y11036D01*
G01X16876Y11031D01*
G01X16859Y11025D01*
G01X16842Y11018D01*
G01X16826Y11011D01*
G01X16810Y11003D01*
G01X16794Y10994D01*
G01X16778Y10984D01*
G01X16764Y10974D01*
G01X16750Y10963D01*
G01X16722Y10939D01*
G01X16710Y10927D01*
G01X16697Y10913D01*
G01X16686Y10900D01*
G01X16675Y10885D01*
G01X16665Y10871D01*
G01X16655Y10855D01*
G01X16646Y10840D01*
G01X16638Y10823D01*
G01X16631Y10807D01*
G01X16624Y10790D01*
G01X16618Y10773D01*
G01X16613Y10756D01*
G01X16609Y10739D01*
G01X16605Y10721D01*
G01X16602Y10703D01*
G01X16600Y10686D01*
G01X16599Y10667D01*
G01X16598Y10650D01*
G01X16599Y10632D01*
G01X16600Y10613D01*
G01X16602Y10596D01*
G01X16605Y10578D01*
G01X16609Y10560D01*
G01X16613Y10543D01*
G01X16618Y10526D01*
G01X16624Y10509D01*
G01X16631Y10492D01*
G01X16638Y10476D01*
G01X16646Y10459D01*
G01X16655Y10444D01*
G01X16665Y10428D01*
G01X16675Y10414D01*
G01X16697Y10386D01*
G01X16710Y10372D01*
G01X16722Y10360D01*
G01X16750Y10336D01*
G01X16764Y10325D01*
G01X16778Y10315D01*
G01X16794Y10305D01*
G01X16810Y10296D01*
G01X16826Y10288D01*
G01X16842Y10281D01*
G01X16859Y10274D01*
G01X16876Y10268D01*
G01X16893Y10263D01*
G01X16910Y10259D01*
G01X16928Y10255D01*
G01X16946Y10252D01*
G01X16964Y10250D01*
G01X16981Y10249D01*
G01X17000Y10248D01*
G01X17018Y10249D01*
G01X17035Y10250D01*
G01X17053Y10252D01*
G01X17071Y10255D01*
G01X17089Y10259D01*
G01X17106Y10263D01*
G01X17123Y10268D01*
G01X17140Y10274D01*
G01X17157Y10281D01*
G01X17173Y10288D01*
G01X17189Y10296D01*
G01X17205Y10305D01*
G01X17221Y10315D01*
G01X17235Y10325D01*
G01X17250Y10336D01*
G01X17263Y10348D01*
G01X17277Y10360D01*
G01X17289Y10372D01*
G01X17302Y10386D01*
G01X17324Y10414D01*
G01X17334Y10428D01*
G01X17344Y10444D01*
G01X17353Y10459D01*
G01X17361Y10476D01*
G01X17368Y10492D01*
G01X17375Y10509D01*
G01X17381Y10526D01*
G01X17386Y10543D01*
G01X17390Y10560D01*
G01X17394Y10578D01*
G01X17397Y10596D01*
G01X17399Y10613D01*
G01X17400Y10632D01*
G01X17401Y10650D01*
G01X17400Y10667D01*
G01X17399Y10686D01*
G01X17397Y10703D01*
G01X17394Y10721D01*
G01X17390Y10739D01*
G01X17386Y10756D01*
G01X17381Y10773D01*
G01X17375Y10790D01*
G01X17368Y10807D01*
G01X17361Y10823D01*
G01X17353Y10840D01*
G01X17344Y10855D01*
G01X17334Y10871D01*
G01X17324Y10885D01*
G01X17313Y10900D01*
G01X17302Y10913D01*
G01X17289Y10927D01*
G01X17277Y10939D01*
G01X17263Y10951D01*
G01X17250Y10963D01*
G01X17235Y10974D01*
G01X17221Y10984D01*
G01X17205Y10994D01*
G01X17189Y11003D01*
G01X17173Y11011D01*
G01X17157Y11018D01*
G01X17140Y11025D01*
G01X17123Y11031D01*
G01X17106Y11036D01*
G01X17089Y11040D01*
G01X17071Y11044D01*
G01X17053Y11047D01*
G01X17035Y11049D01*
G01X17018Y11050D01*
G37*
G36*
G01X17825Y10475D02*
G01X17639Y10475D01*
G01X17647Y10457D01*
G01X17667Y10425D01*
G01X17678Y10409D01*
G01X17690Y10394D01*
G01X17716Y10366D01*
G01X17744Y10340D01*
G01X17759Y10328D01*
G01X17775Y10317D01*
G01X17791Y10307D01*
G01X17807Y10298D01*
G01X17825Y10289D01*
G01X17825Y10475D01*
G37*
G36*
G01X18360Y10475D02*
G01X18175Y10475D01*
G01X18175Y10289D01*
G01X18192Y10298D01*
G01X18208Y10307D01*
G01X18224Y10317D01*
G01X18240Y10328D01*
G01X18255Y10340D01*
G01X18283Y10366D01*
G01X18309Y10394D01*
G01X18321Y10409D01*
G01X18332Y10425D01*
G01X18352Y10457D01*
G01X18360Y10475D01*
G37*
G36*
G01X8018Y11400D02*
G01X8000Y11401D01*
G01X7981Y11400D01*
G01X7964Y11399D01*
G01X7946Y11397D01*
G01X7928Y11394D01*
G01X7910Y11390D01*
G01X7893Y11386D01*
G01X7876Y11381D01*
G01X7859Y11375D01*
G01X7842Y11368D01*
G01X7826Y11361D01*
G01X7810Y11353D01*
G01X7794Y11344D01*
G01X7778Y11334D01*
G01X7764Y11324D01*
G01X7750Y11313D01*
G01X7722Y11289D01*
G01X7710Y11277D01*
G01X7697Y11263D01*
G01X7686Y11250D01*
G01X7675Y11235D01*
G01X7665Y11221D01*
G01X7655Y11205D01*
G01X7646Y11190D01*
G01X7638Y11173D01*
G01X7631Y11157D01*
G01X7624Y11140D01*
G01X7618Y11123D01*
G01X7613Y11106D01*
G01X7609Y11089D01*
G01X7605Y11071D01*
G01X7602Y11053D01*
G01X7600Y11036D01*
G01X7599Y11017D01*
G01X7598Y11000D01*
G01X7599Y10982D01*
G01X7600Y10963D01*
G01X7602Y10946D01*
G01X7605Y10928D01*
G01X7609Y10910D01*
G01X7613Y10893D01*
G01X7618Y10876D01*
G01X7624Y10859D01*
G01X7631Y10842D01*
G01X7638Y10826D01*
G01X7646Y10809D01*
G01X7655Y10794D01*
G01X7665Y10778D01*
G01X7675Y10764D01*
G01X7697Y10736D01*
G01X7710Y10722D01*
G01X7722Y10710D01*
G01X7750Y10686D01*
G01X7764Y10675D01*
G01X7778Y10665D01*
G01X7794Y10655D01*
G01X7810Y10646D01*
G01X7826Y10638D01*
G01X7842Y10631D01*
G01X7859Y10624D01*
G01X7876Y10618D01*
G01X7893Y10613D01*
G01X7910Y10609D01*
G01X7928Y10605D01*
G01X7946Y10602D01*
G01X7964Y10600D01*
G01X7981Y10599D01*
G01X8000Y10598D01*
G01X8018Y10599D01*
G01X8035Y10600D01*
G01X8053Y10602D01*
G01X8071Y10605D01*
G01X8089Y10609D01*
G01X8106Y10613D01*
G01X8123Y10618D01*
G01X8140Y10624D01*
G01X8157Y10631D01*
G01X8173Y10638D01*
G01X8189Y10646D01*
G01X8205Y10655D01*
G01X8221Y10665D01*
G01X8235Y10675D01*
G01X8250Y10686D01*
G01X8263Y10698D01*
G01X8277Y10710D01*
G01X8289Y10722D01*
G01X8302Y10736D01*
G01X8324Y10764D01*
G01X8334Y10778D01*
G01X8344Y10794D01*
G01X8353Y10809D01*
G01X8361Y10826D01*
G01X8368Y10842D01*
G01X8375Y10859D01*
G01X8381Y10876D01*
G01X8386Y10893D01*
G01X8390Y10910D01*
G01X8394Y10928D01*
G01X8397Y10946D01*
G01X8399Y10963D01*
G01X8400Y10982D01*
G01X8401Y11000D01*
G01X8400Y11017D01*
G01X8399Y11036D01*
G01X8397Y11053D01*
G01X8394Y11071D01*
G01X8390Y11089D01*
G01X8386Y11106D01*
G01X8381Y11123D01*
G01X8375Y11140D01*
G01X8368Y11157D01*
G01X8361Y11173D01*
G01X8353Y11190D01*
G01X8344Y11205D01*
G01X8334Y11221D01*
G01X8324Y11235D01*
G01X8313Y11250D01*
G01X8302Y11263D01*
G01X8289Y11277D01*
G01X8277Y11289D01*
G01X8263Y11301D01*
G01X8250Y11313D01*
G01X8235Y11324D01*
G01X8221Y11334D01*
G01X8205Y11344D01*
G01X8189Y11353D01*
G01X8173Y11361D01*
G01X8157Y11368D01*
G01X8140Y11375D01*
G01X8123Y11381D01*
G01X8106Y11386D01*
G01X8089Y11390D01*
G01X8071Y11394D01*
G01X8053Y11397D01*
G01X8035Y11399D01*
G01X8018Y11400D01*
G37*
G36*
G01X6018Y11400D02*
G01X6000Y11401D01*
G01X5981Y11400D01*
G01X5964Y11399D01*
G01X5946Y11397D01*
G01X5928Y11394D01*
G01X5910Y11390D01*
G01X5893Y11386D01*
G01X5876Y11381D01*
G01X5859Y11375D01*
G01X5842Y11368D01*
G01X5826Y11361D01*
G01X5810Y11353D01*
G01X5794Y11344D01*
G01X5778Y11334D01*
G01X5764Y11324D01*
G01X5750Y11313D01*
G01X5722Y11289D01*
G01X5710Y11277D01*
G01X5697Y11263D01*
G01X5686Y11250D01*
G01X5675Y11235D01*
G01X5665Y11221D01*
G01X5655Y11205D01*
G01X5646Y11190D01*
G01X5638Y11173D01*
G01X5631Y11157D01*
G01X5624Y11140D01*
G01X5618Y11123D01*
G01X5613Y11106D01*
G01X5609Y11089D01*
G01X5605Y11071D01*
G01X5602Y11053D01*
G01X5600Y11036D01*
G01X5599Y11017D01*
G01X5598Y11000D01*
G01X5599Y10982D01*
G01X5600Y10963D01*
G01X5602Y10946D01*
G01X5605Y10928D01*
G01X5609Y10910D01*
G01X5613Y10893D01*
G01X5618Y10876D01*
G01X5624Y10859D01*
G01X5631Y10842D01*
G01X5638Y10826D01*
G01X5646Y10809D01*
G01X5655Y10794D01*
G01X5665Y10778D01*
G01X5675Y10764D01*
G01X5697Y10736D01*
G01X5710Y10722D01*
G01X5722Y10710D01*
G01X5750Y10686D01*
G01X5764Y10675D01*
G01X5778Y10665D01*
G01X5794Y10655D01*
G01X5810Y10646D01*
G01X5826Y10638D01*
G01X5842Y10631D01*
G01X5859Y10624D01*
G01X5876Y10618D01*
G01X5893Y10613D01*
G01X5910Y10609D01*
G01X5928Y10605D01*
G01X5946Y10602D01*
G01X5964Y10600D01*
G01X5981Y10599D01*
G01X6000Y10598D01*
G01X6018Y10599D01*
G01X6035Y10600D01*
G01X6053Y10602D01*
G01X6071Y10605D01*
G01X6089Y10609D01*
G01X6106Y10613D01*
G01X6123Y10618D01*
G01X6140Y10624D01*
G01X6157Y10631D01*
G01X6173Y10638D01*
G01X6189Y10646D01*
G01X6205Y10655D01*
G01X6221Y10665D01*
G01X6235Y10675D01*
G01X6250Y10686D01*
G01X6263Y10698D01*
G01X6277Y10710D01*
G01X6289Y10722D01*
G01X6302Y10736D01*
G01X6324Y10764D01*
G01X6334Y10778D01*
G01X6344Y10794D01*
G01X6353Y10809D01*
G01X6361Y10826D01*
G01X6368Y10842D01*
G01X6375Y10859D01*
G01X6381Y10876D01*
G01X6386Y10893D01*
G01X6390Y10910D01*
G01X6394Y10928D01*
G01X6397Y10946D01*
G01X6399Y10963D01*
G01X6400Y10982D01*
G01X6401Y11000D01*
G01X6400Y11017D01*
G01X6399Y11036D01*
G01X6397Y11053D01*
G01X6394Y11071D01*
G01X6390Y11089D01*
G01X6386Y11106D01*
G01X6381Y11123D01*
G01X6375Y11140D01*
G01X6368Y11157D01*
G01X6361Y11173D01*
G01X6353Y11190D01*
G01X6344Y11205D01*
G01X6334Y11221D01*
G01X6324Y11235D01*
G01X6313Y11250D01*
G01X6302Y11263D01*
G01X6289Y11277D01*
G01X6277Y11289D01*
G01X6263Y11301D01*
G01X6250Y11313D01*
G01X6235Y11324D01*
G01X6221Y11334D01*
G01X6205Y11344D01*
G01X6189Y11353D01*
G01X6173Y11361D01*
G01X6157Y11368D01*
G01X6140Y11375D01*
G01X6123Y11381D01*
G01X6106Y11386D01*
G01X6089Y11390D01*
G01X6071Y11394D01*
G01X6053Y11397D01*
G01X6035Y11399D01*
G01X6018Y11400D01*
G37*
G36*
G01X6968Y11400D02*
G01X6950Y11401D01*
G01X6931Y11400D01*
G01X6914Y11399D01*
G01X6896Y11397D01*
G01X6878Y11394D01*
G01X6860Y11390D01*
G01X6843Y11386D01*
G01X6826Y11381D01*
G01X6809Y11375D01*
G01X6792Y11368D01*
G01X6776Y11361D01*
G01X6760Y11353D01*
G01X6744Y11344D01*
G01X6728Y11334D01*
G01X6714Y11324D01*
G01X6700Y11313D01*
G01X6672Y11289D01*
G01X6660Y11277D01*
G01X6647Y11263D01*
G01X6636Y11250D01*
G01X6625Y11235D01*
G01X6615Y11221D01*
G01X6605Y11205D01*
G01X6596Y11190D01*
G01X6588Y11173D01*
G01X6581Y11157D01*
G01X6574Y11140D01*
G01X6568Y11123D01*
G01X6563Y11106D01*
G01X6559Y11089D01*
G01X6555Y11071D01*
G01X6552Y11053D01*
G01X6550Y11036D01*
G01X6549Y11017D01*
G01X6548Y11000D01*
G01X6549Y10982D01*
G01X6550Y10963D01*
G01X6552Y10946D01*
G01X6555Y10928D01*
G01X6559Y10910D01*
G01X6563Y10893D01*
G01X6568Y10876D01*
G01X6574Y10859D01*
G01X6581Y10842D01*
G01X6588Y10826D01*
G01X6596Y10809D01*
G01X6605Y10794D01*
G01X6615Y10778D01*
G01X6625Y10764D01*
G01X6647Y10736D01*
G01X6660Y10722D01*
G01X6672Y10710D01*
G01X6700Y10686D01*
G01X6714Y10675D01*
G01X6728Y10665D01*
G01X6744Y10655D01*
G01X6760Y10646D01*
G01X6776Y10638D01*
G01X6792Y10631D01*
G01X6809Y10624D01*
G01X6826Y10618D01*
G01X6843Y10613D01*
G01X6860Y10609D01*
G01X6878Y10605D01*
G01X6896Y10602D01*
G01X6914Y10600D01*
G01X6931Y10599D01*
G01X6950Y10598D01*
G01X6968Y10599D01*
G01X6985Y10600D01*
G01X7003Y10602D01*
G01X7021Y10605D01*
G01X7039Y10609D01*
G01X7056Y10613D01*
G01X7073Y10618D01*
G01X7090Y10624D01*
G01X7107Y10631D01*
G01X7123Y10638D01*
G01X7139Y10646D01*
G01X7155Y10655D01*
G01X7171Y10665D01*
G01X7185Y10675D01*
G01X7200Y10686D01*
G01X7213Y10698D01*
G01X7227Y10710D01*
G01X7239Y10722D01*
G01X7252Y10736D01*
G01X7274Y10764D01*
G01X7284Y10778D01*
G01X7294Y10794D01*
G01X7303Y10809D01*
G01X7311Y10826D01*
G01X7318Y10842D01*
G01X7325Y10859D01*
G01X7331Y10876D01*
G01X7336Y10893D01*
G01X7340Y10910D01*
G01X7344Y10928D01*
G01X7347Y10946D01*
G01X7349Y10963D01*
G01X7350Y10982D01*
G01X7351Y11000D01*
G01X7350Y11017D01*
G01X7349Y11036D01*
G01X7347Y11053D01*
G01X7344Y11071D01*
G01X7340Y11089D01*
G01X7336Y11106D01*
G01X7331Y11123D01*
G01X7325Y11140D01*
G01X7318Y11157D01*
G01X7311Y11173D01*
G01X7303Y11190D01*
G01X7294Y11205D01*
G01X7284Y11221D01*
G01X7274Y11235D01*
G01X7263Y11250D01*
G01X7252Y11263D01*
G01X7239Y11277D01*
G01X7227Y11289D01*
G01X7213Y11301D01*
G01X7200Y11313D01*
G01X7185Y11324D01*
G01X7171Y11334D01*
G01X7155Y11344D01*
G01X7139Y11353D01*
G01X7123Y11361D01*
G01X7107Y11368D01*
G01X7090Y11375D01*
G01X7073Y11381D01*
G01X7056Y11386D01*
G01X7039Y11390D01*
G01X7021Y11394D01*
G01X7003Y11397D01*
G01X6985Y11399D01*
G01X6968Y11400D01*
G37*
G36*
G01X8825Y10825D02*
G01X8639Y10825D01*
G01X8647Y10807D01*
G01X8667Y10775D01*
G01X8678Y10759D01*
G01X8690Y10744D01*
G01X8716Y10716D01*
G01X8744Y10690D01*
G01X8759Y10678D01*
G01X8775Y10667D01*
G01X8791Y10657D01*
G01X8807Y10648D01*
G01X8825Y10639D01*
G01X8825Y10825D01*
G37*
G36*
G01X9360Y10825D02*
G01X9175Y10825D01*
G01X9175Y10639D01*
G01X9192Y10648D01*
G01X9208Y10657D01*
G01X9224Y10667D01*
G01X9240Y10678D01*
G01X9255Y10690D01*
G01X9283Y10716D01*
G01X9309Y10744D01*
G01X9321Y10759D01*
G01X9332Y10775D01*
G01X9352Y10807D01*
G01X9360Y10825D01*
G37*
G36*
G01X1017Y11450D02*
G01X1000Y11451D01*
G01X982Y11450D01*
G01X963Y11449D01*
G01X946Y11447D01*
G01X928Y11444D01*
G01X910Y11440D01*
G01X893Y11436D01*
G01X876Y11431D01*
G01X859Y11425D01*
G01X842Y11418D01*
G01X826Y11411D01*
G01X809Y11403D01*
G01X794Y11394D01*
G01X778Y11384D01*
G01X764Y11374D01*
G01X750Y11363D01*
G01X722Y11339D01*
G01X710Y11327D01*
G01X698Y11313D01*
G01X686Y11300D01*
G01X675Y11285D01*
G01X665Y11271D01*
G01X655Y11255D01*
G01X646Y11240D01*
G01X638Y11223D01*
G01X631Y11207D01*
G01X624Y11190D01*
G01X618Y11173D01*
G01X613Y11156D01*
G01X609Y11139D01*
G01X605Y11121D01*
G01X602Y11103D01*
G01X600Y11086D01*
G01X599Y11067D01*
G01X598Y11050D01*
G01X599Y11032D01*
G01X600Y11013D01*
G01X602Y10996D01*
G01X605Y10978D01*
G01X609Y10960D01*
G01X613Y10943D01*
G01X618Y10926D01*
G01X624Y10909D01*
G01X631Y10892D01*
G01X638Y10876D01*
G01X646Y10859D01*
G01X655Y10844D01*
G01X665Y10828D01*
G01X675Y10814D01*
G01X686Y10800D01*
G01X710Y10772D01*
G01X722Y10760D01*
G01X750Y10736D01*
G01X764Y10725D01*
G01X778Y10715D01*
G01X794Y10705D01*
G01X809Y10696D01*
G01X826Y10688D01*
G01X842Y10681D01*
G01X859Y10674D01*
G01X876Y10668D01*
G01X893Y10663D01*
G01X910Y10659D01*
G01X928Y10655D01*
G01X946Y10652D01*
G01X963Y10650D01*
G01X982Y10649D01*
G01X1000Y10648D01*
G01X1017Y10649D01*
G01X1036Y10650D01*
G01X1053Y10652D01*
G01X1071Y10655D01*
G01X1089Y10659D01*
G01X1106Y10663D01*
G01X1123Y10668D01*
G01X1140Y10674D01*
G01X1157Y10681D01*
G01X1173Y10688D01*
G01X1190Y10696D01*
G01X1205Y10705D01*
G01X1221Y10715D01*
G01X1235Y10725D01*
G01X1250Y10736D01*
G01X1263Y10748D01*
G01X1277Y10760D01*
G01X1289Y10772D01*
G01X1313Y10800D01*
G01X1324Y10814D01*
G01X1334Y10828D01*
G01X1344Y10844D01*
G01X1353Y10859D01*
G01X1361Y10876D01*
G01X1368Y10892D01*
G01X1375Y10909D01*
G01X1381Y10926D01*
G01X1386Y10943D01*
G01X1390Y10960D01*
G01X1394Y10978D01*
G01X1397Y10996D01*
G01X1399Y11013D01*
G01X1400Y11032D01*
G01X1401Y11050D01*
G01X1400Y11067D01*
G01X1399Y11086D01*
G01X1397Y11103D01*
G01X1394Y11121D01*
G01X1390Y11139D01*
G01X1386Y11156D01*
G01X1381Y11173D01*
G01X1375Y11190D01*
G01X1368Y11207D01*
G01X1361Y11223D01*
G01X1353Y11240D01*
G01X1344Y11255D01*
G01X1334Y11271D01*
G01X1324Y11285D01*
G01X1313Y11300D01*
G01X1301Y11313D01*
G01X1289Y11327D01*
G01X1277Y11339D01*
G01X1263Y11351D01*
G01X1250Y11363D01*
G01X1235Y11374D01*
G01X1221Y11384D01*
G01X1205Y11394D01*
G01X1190Y11403D01*
G01X1173Y11411D01*
G01X1157Y11418D01*
G01X1140Y11425D01*
G01X1123Y11431D01*
G01X1106Y11436D01*
G01X1089Y11440D01*
G01X1071Y11444D01*
G01X1053Y11447D01*
G01X1036Y11449D01*
G01X1017Y11450D01*
G37*
G36*
G01X5018Y11450D02*
G01X5000Y11451D01*
G01X4981Y11450D01*
G01X4964Y11449D01*
G01X4946Y11447D01*
G01X4928Y11444D01*
G01X4910Y11440D01*
G01X4893Y11436D01*
G01X4876Y11431D01*
G01X4859Y11425D01*
G01X4842Y11418D01*
G01X4826Y11411D01*
G01X4810Y11403D01*
G01X4794Y11394D01*
G01X4778Y11384D01*
G01X4764Y11374D01*
G01X4750Y11363D01*
G01X4722Y11339D01*
G01X4710Y11327D01*
G01X4697Y11313D01*
G01X4686Y11300D01*
G01X4675Y11285D01*
G01X4665Y11271D01*
G01X4655Y11255D01*
G01X4646Y11240D01*
G01X4638Y11223D01*
G01X4631Y11207D01*
G01X4624Y11190D01*
G01X4618Y11173D01*
G01X4613Y11156D01*
G01X4609Y11139D01*
G01X4605Y11121D01*
G01X4602Y11103D01*
G01X4600Y11086D01*
G01X4599Y11067D01*
G01X4598Y11050D01*
G01X4599Y11032D01*
G01X4600Y11013D01*
G01X4602Y10996D01*
G01X4605Y10978D01*
G01X4609Y10960D01*
G01X4613Y10943D01*
G01X4618Y10926D01*
G01X4624Y10909D01*
G01X4631Y10892D01*
G01X4638Y10876D01*
G01X4646Y10859D01*
G01X4655Y10844D01*
G01X4665Y10828D01*
G01X4675Y10814D01*
G01X4697Y10786D01*
G01X4710Y10772D01*
G01X4722Y10760D01*
G01X4750Y10736D01*
G01X4764Y10725D01*
G01X4778Y10715D01*
G01X4794Y10705D01*
G01X4810Y10696D01*
G01X4826Y10688D01*
G01X4842Y10681D01*
G01X4859Y10674D01*
G01X4876Y10668D01*
G01X4893Y10663D01*
G01X4910Y10659D01*
G01X4928Y10655D01*
G01X4946Y10652D01*
G01X4964Y10650D01*
G01X4981Y10649D01*
G01X5000Y10648D01*
G01X5018Y10649D01*
G01X5035Y10650D01*
G01X5053Y10652D01*
G01X5071Y10655D01*
G01X5089Y10659D01*
G01X5106Y10663D01*
G01X5123Y10668D01*
G01X5140Y10674D01*
G01X5157Y10681D01*
G01X5173Y10688D01*
G01X5189Y10696D01*
G01X5205Y10705D01*
G01X5221Y10715D01*
G01X5235Y10725D01*
G01X5250Y10736D01*
G01X5263Y10748D01*
G01X5277Y10760D01*
G01X5289Y10772D01*
G01X5302Y10786D01*
G01X5324Y10814D01*
G01X5334Y10828D01*
G01X5344Y10844D01*
G01X5353Y10859D01*
G01X5361Y10876D01*
G01X5368Y10892D01*
G01X5375Y10909D01*
G01X5381Y10926D01*
G01X5386Y10943D01*
G01X5390Y10960D01*
G01X5394Y10978D01*
G01X5397Y10996D01*
G01X5399Y11013D01*
G01X5400Y11032D01*
G01X5401Y11050D01*
G01X5400Y11067D01*
G01X5399Y11086D01*
G01X5397Y11103D01*
G01X5394Y11121D01*
G01X5390Y11139D01*
G01X5386Y11156D01*
G01X5381Y11173D01*
G01X5375Y11190D01*
G01X5368Y11207D01*
G01X5361Y11223D01*
G01X5353Y11240D01*
G01X5344Y11255D01*
G01X5334Y11271D01*
G01X5324Y11285D01*
G01X5313Y11300D01*
G01X5302Y11313D01*
G01X5289Y11327D01*
G01X5277Y11339D01*
G01X5263Y11351D01*
G01X5250Y11363D01*
G01X5235Y11374D01*
G01X5221Y11384D01*
G01X5205Y11394D01*
G01X5189Y11403D01*
G01X5173Y11411D01*
G01X5157Y11418D01*
G01X5140Y11425D01*
G01X5123Y11431D01*
G01X5106Y11436D01*
G01X5089Y11440D01*
G01X5071Y11444D01*
G01X5053Y11447D01*
G01X5035Y11449D01*
G01X5018Y11450D01*
G37*
G36*
G01X2017Y11450D02*
G01X2000Y11451D01*
G01X1982Y11450D01*
G01X1963Y11449D01*
G01X1946Y11447D01*
G01X1928Y11444D01*
G01X1910Y11440D01*
G01X1893Y11436D01*
G01X1876Y11431D01*
G01X1859Y11425D01*
G01X1842Y11418D01*
G01X1826Y11411D01*
G01X1809Y11403D01*
G01X1794Y11394D01*
G01X1778Y11384D01*
G01X1764Y11374D01*
G01X1750Y11363D01*
G01X1722Y11339D01*
G01X1710Y11327D01*
G01X1698Y11313D01*
G01X1686Y11300D01*
G01X1675Y11285D01*
G01X1665Y11271D01*
G01X1655Y11255D01*
G01X1646Y11240D01*
G01X1638Y11223D01*
G01X1631Y11207D01*
G01X1624Y11190D01*
G01X1618Y11173D01*
G01X1613Y11156D01*
G01X1609Y11139D01*
G01X1605Y11121D01*
G01X1602Y11103D01*
G01X1600Y11086D01*
G01X1599Y11067D01*
G01X1598Y11050D01*
G01X1599Y11032D01*
G01X1600Y11013D01*
G01X1602Y10996D01*
G01X1605Y10978D01*
G01X1609Y10960D01*
G01X1613Y10943D01*
G01X1618Y10926D01*
G01X1624Y10909D01*
G01X1631Y10892D01*
G01X1638Y10876D01*
G01X1646Y10859D01*
G01X1655Y10844D01*
G01X1665Y10828D01*
G01X1675Y10814D01*
G01X1686Y10800D01*
G01X1710Y10772D01*
G01X1722Y10760D01*
G01X1750Y10736D01*
G01X1764Y10725D01*
G01X1778Y10715D01*
G01X1794Y10705D01*
G01X1809Y10696D01*
G01X1826Y10688D01*
G01X1842Y10681D01*
G01X1859Y10674D01*
G01X1876Y10668D01*
G01X1893Y10663D01*
G01X1910Y10659D01*
G01X1928Y10655D01*
G01X1946Y10652D01*
G01X1963Y10650D01*
G01X1982Y10649D01*
G01X2000Y10648D01*
G01X2017Y10649D01*
G01X2036Y10650D01*
G01X2053Y10652D01*
G01X2071Y10655D01*
G01X2089Y10659D01*
G01X2106Y10663D01*
G01X2123Y10668D01*
G01X2140Y10674D01*
G01X2157Y10681D01*
G01X2173Y10688D01*
G01X2190Y10696D01*
G01X2205Y10705D01*
G01X2221Y10715D01*
G01X2235Y10725D01*
G01X2250Y10736D01*
G01X2263Y10748D01*
G01X2277Y10760D01*
G01X2289Y10772D01*
G01X2313Y10800D01*
G01X2324Y10814D01*
G01X2334Y10828D01*
G01X2344Y10844D01*
G01X2353Y10859D01*
G01X2361Y10876D01*
G01X2368Y10892D01*
G01X2375Y10909D01*
G01X2381Y10926D01*
G01X2386Y10943D01*
G01X2390Y10960D01*
G01X2394Y10978D01*
G01X2397Y10996D01*
G01X2399Y11013D01*
G01X2400Y11032D01*
G01X2401Y11050D01*
G01X2400Y11067D01*
G01X2399Y11086D01*
G01X2397Y11103D01*
G01X2394Y11121D01*
G01X2390Y11139D01*
G01X2386Y11156D01*
G01X2381Y11173D01*
G01X2375Y11190D01*
G01X2368Y11207D01*
G01X2361Y11223D01*
G01X2353Y11240D01*
G01X2344Y11255D01*
G01X2334Y11271D01*
G01X2324Y11285D01*
G01X2313Y11300D01*
G01X2301Y11313D01*
G01X2289Y11327D01*
G01X2277Y11339D01*
G01X2263Y11351D01*
G01X2250Y11363D01*
G01X2235Y11374D01*
G01X2221Y11384D01*
G01X2205Y11394D01*
G01X2190Y11403D01*
G01X2173Y11411D01*
G01X2157Y11418D01*
G01X2140Y11425D01*
G01X2123Y11431D01*
G01X2106Y11436D01*
G01X2089Y11440D01*
G01X2071Y11444D01*
G01X2053Y11447D01*
G01X2036Y11449D01*
G01X2017Y11450D01*
G37*
G36*
G01X3017Y11450D02*
G01X3000Y11451D01*
G01X2982Y11450D01*
G01X2963Y11449D01*
G01X2946Y11447D01*
G01X2928Y11444D01*
G01X2910Y11440D01*
G01X2893Y11436D01*
G01X2876Y11431D01*
G01X2859Y11425D01*
G01X2842Y11418D01*
G01X2826Y11411D01*
G01X2809Y11403D01*
G01X2794Y11394D01*
G01X2778Y11384D01*
G01X2764Y11374D01*
G01X2750Y11363D01*
G01X2722Y11339D01*
G01X2710Y11327D01*
G01X2698Y11313D01*
G01X2686Y11300D01*
G01X2675Y11285D01*
G01X2665Y11271D01*
G01X2655Y11255D01*
G01X2646Y11240D01*
G01X2638Y11223D01*
G01X2631Y11207D01*
G01X2624Y11190D01*
G01X2618Y11173D01*
G01X2613Y11156D01*
G01X2609Y11139D01*
G01X2605Y11121D01*
G01X2602Y11103D01*
G01X2600Y11086D01*
G01X2599Y11067D01*
G01X2598Y11050D01*
G01X2599Y11032D01*
G01X2600Y11013D01*
G01X2602Y10996D01*
G01X2605Y10978D01*
G01X2609Y10960D01*
G01X2613Y10943D01*
G01X2618Y10926D01*
G01X2624Y10909D01*
G01X2631Y10892D01*
G01X2638Y10876D01*
G01X2646Y10859D01*
G01X2655Y10844D01*
G01X2665Y10828D01*
G01X2675Y10814D01*
G01X2686Y10800D01*
G01X2710Y10772D01*
G01X2722Y10760D01*
G01X2750Y10736D01*
G01X2764Y10725D01*
G01X2778Y10715D01*
G01X2794Y10705D01*
G01X2809Y10696D01*
G01X2826Y10688D01*
G01X2842Y10681D01*
G01X2859Y10674D01*
G01X2876Y10668D01*
G01X2893Y10663D01*
G01X2910Y10659D01*
G01X2928Y10655D01*
G01X2946Y10652D01*
G01X2963Y10650D01*
G01X2982Y10649D01*
G01X3000Y10648D01*
G01X3017Y10649D01*
G01X3036Y10650D01*
G01X3053Y10652D01*
G01X3071Y10655D01*
G01X3089Y10659D01*
G01X3106Y10663D01*
G01X3123Y10668D01*
G01X3140Y10674D01*
G01X3157Y10681D01*
G01X3173Y10688D01*
G01X3190Y10696D01*
G01X3205Y10705D01*
G01X3221Y10715D01*
G01X3235Y10725D01*
G01X3250Y10736D01*
G01X3263Y10748D01*
G01X3277Y10760D01*
G01X3289Y10772D01*
G01X3313Y10800D01*
G01X3324Y10814D01*
G01X3334Y10828D01*
G01X3344Y10844D01*
G01X3353Y10859D01*
G01X3361Y10876D01*
G01X3368Y10892D01*
G01X3375Y10909D01*
G01X3381Y10926D01*
G01X3386Y10943D01*
G01X3390Y10960D01*
G01X3394Y10978D01*
G01X3397Y10996D01*
G01X3399Y11013D01*
G01X3400Y11032D01*
G01X3401Y11050D01*
G01X3400Y11067D01*
G01X3399Y11086D01*
G01X3397Y11103D01*
G01X3394Y11121D01*
G01X3390Y11139D01*
G01X3386Y11156D01*
G01X3381Y11173D01*
G01X3375Y11190D01*
G01X3368Y11207D01*
G01X3361Y11223D01*
G01X3353Y11240D01*
G01X3344Y11255D01*
G01X3334Y11271D01*
G01X3324Y11285D01*
G01X3313Y11300D01*
G01X3301Y11313D01*
G01X3289Y11327D01*
G01X3277Y11339D01*
G01X3263Y11351D01*
G01X3250Y11363D01*
G01X3235Y11374D01*
G01X3221Y11384D01*
G01X3205Y11394D01*
G01X3190Y11403D01*
G01X3173Y11411D01*
G01X3157Y11418D01*
G01X3140Y11425D01*
G01X3123Y11431D01*
G01X3106Y11436D01*
G01X3089Y11440D01*
G01X3071Y11444D01*
G01X3053Y11447D01*
G01X3036Y11449D01*
G01X3017Y11450D01*
G37*
G36*
G01X4017Y11450D02*
G01X4000Y11451D01*
G01X3982Y11450D01*
G01X3963Y11449D01*
G01X3946Y11447D01*
G01X3928Y11444D01*
G01X3910Y11440D01*
G01X3893Y11436D01*
G01X3876Y11431D01*
G01X3859Y11425D01*
G01X3842Y11418D01*
G01X3826Y11411D01*
G01X3809Y11403D01*
G01X3794Y11394D01*
G01X3778Y11384D01*
G01X3764Y11374D01*
G01X3750Y11363D01*
G01X3722Y11339D01*
G01X3710Y11327D01*
G01X3698Y11313D01*
G01X3686Y11300D01*
G01X3675Y11285D01*
G01X3665Y11271D01*
G01X3655Y11255D01*
G01X3646Y11240D01*
G01X3638Y11223D01*
G01X3631Y11207D01*
G01X3624Y11190D01*
G01X3618Y11173D01*
G01X3613Y11156D01*
G01X3609Y11139D01*
G01X3605Y11121D01*
G01X3602Y11103D01*
G01X3600Y11086D01*
G01X3599Y11067D01*
G01X3598Y11050D01*
G01X3599Y11032D01*
G01X3600Y11013D01*
G01X3602Y10996D01*
G01X3605Y10978D01*
G01X3609Y10960D01*
G01X3613Y10943D01*
G01X3618Y10926D01*
G01X3624Y10909D01*
G01X3631Y10892D01*
G01X3638Y10876D01*
G01X3646Y10859D01*
G01X3655Y10844D01*
G01X3665Y10828D01*
G01X3675Y10814D01*
G01X3686Y10800D01*
G01X3710Y10772D01*
G01X3722Y10760D01*
G01X3750Y10736D01*
G01X3764Y10725D01*
G01X3778Y10715D01*
G01X3794Y10705D01*
G01X3809Y10696D01*
G01X3826Y10688D01*
G01X3842Y10681D01*
G01X3859Y10674D01*
G01X3876Y10668D01*
G01X3893Y10663D01*
G01X3910Y10659D01*
G01X3928Y10655D01*
G01X3946Y10652D01*
G01X3963Y10650D01*
G01X3982Y10649D01*
G01X4000Y10648D01*
G01X4017Y10649D01*
G01X4036Y10650D01*
G01X4053Y10652D01*
G01X4071Y10655D01*
G01X4089Y10659D01*
G01X4106Y10663D01*
G01X4123Y10668D01*
G01X4140Y10674D01*
G01X4157Y10681D01*
G01X4173Y10688D01*
G01X4190Y10696D01*
G01X4205Y10705D01*
G01X4221Y10715D01*
G01X4235Y10725D01*
G01X4250Y10736D01*
G01X4263Y10748D01*
G01X4277Y10760D01*
G01X4289Y10772D01*
G01X4313Y10800D01*
G01X4324Y10814D01*
G01X4334Y10828D01*
G01X4344Y10844D01*
G01X4353Y10859D01*
G01X4361Y10876D01*
G01X4368Y10892D01*
G01X4375Y10909D01*
G01X4381Y10926D01*
G01X4386Y10943D01*
G01X4390Y10960D01*
G01X4394Y10978D01*
G01X4397Y10996D01*
G01X4399Y11013D01*
G01X4400Y11032D01*
G01X4401Y11050D01*
G01X4400Y11067D01*
G01X4399Y11086D01*
G01X4397Y11103D01*
G01X4394Y11121D01*
G01X4390Y11139D01*
G01X4386Y11156D01*
G01X4381Y11173D01*
G01X4375Y11190D01*
G01X4368Y11207D01*
G01X4361Y11223D01*
G01X4353Y11240D01*
G01X4344Y11255D01*
G01X4334Y11271D01*
G01X4324Y11285D01*
G01X4313Y11300D01*
G01X4301Y11313D01*
G01X4289Y11327D01*
G01X4277Y11339D01*
G01X4263Y11351D01*
G01X4250Y11363D01*
G01X4235Y11374D01*
G01X4221Y11384D01*
G01X4205Y11394D01*
G01X4190Y11403D01*
G01X4173Y11411D01*
G01X4157Y11418D01*
G01X4140Y11425D01*
G01X4123Y11431D01*
G01X4106Y11436D01*
G01X4089Y11440D01*
G01X4071Y11444D01*
G01X4053Y11447D01*
G01X4036Y11449D01*
G01X4017Y11450D01*
G37*
G36*
G01X17825Y10825D02*
G01X17825Y11010D01*
G01X17807Y11001D01*
G01X17791Y10992D01*
G01X17775Y10982D01*
G01X17759Y10971D01*
G01X17744Y10959D01*
G01X17716Y10933D01*
G01X17690Y10905D01*
G01X17678Y10890D01*
G01X17667Y10874D01*
G01X17647Y10842D01*
G01X17639Y10825D01*
G01X17825Y10825D01*
G37*
G36*
G01X18192Y11001D02*
G01X18175Y11010D01*
G01X18175Y10825D01*
G01X18360Y10825D01*
G01X18352Y10842D01*
G01X18332Y10874D01*
G01X18321Y10890D01*
G01X18309Y10905D01*
G01X18283Y10933D01*
G01X18255Y10959D01*
G01X18240Y10971D01*
G01X18224Y10982D01*
G01X18208Y10992D01*
G01X18192Y11001D01*
G37*
G36*
G01X8825Y11175D02*
G01X8825Y11360D01*
G01X8807Y11351D01*
G01X8791Y11342D01*
G01X8775Y11332D01*
G01X8759Y11321D01*
G01X8744Y11309D01*
G01X8716Y11283D01*
G01X8690Y11255D01*
G01X8678Y11240D01*
G01X8667Y11224D01*
G01X8647Y11192D01*
G01X8639Y11175D01*
G01X8825Y11175D01*
G37*
G36*
G01X11089Y8580D02*
G01X10611Y8580D01*
G01X10593Y8578D01*
G01X10584Y8576D01*
G01X10575Y8573D01*
G01X10567Y8569D01*
G01X10558Y8564D01*
G01X10551Y8559D01*
G01X10543Y8553D01*
G01X10531Y8539D01*
G01X10526Y8532D01*
G01X10521Y8523D01*
G01X10517Y8515D01*
G01X10514Y8506D01*
G01X10512Y8497D01*
G01X10511Y8488D01*
G01X10510Y8478D01*
G01X10510Y7619D01*
G01X10512Y7601D01*
G01X10514Y7592D01*
G01X10517Y7583D01*
G01X10521Y7575D01*
G01X10526Y7566D01*
G01X10531Y7559D01*
G01X10537Y7551D01*
G01X10543Y7545D01*
G01X10551Y7539D01*
G01X10558Y7534D01*
G01X10567Y7529D01*
G01X10575Y7525D01*
G01X10584Y7522D01*
G01X10593Y7520D01*
G01X10602Y7519D01*
G01X11098Y7519D01*
G01X11107Y7520D01*
G01X11116Y7522D01*
G01X11125Y7525D01*
G01X11134Y7529D01*
G01X11142Y7534D01*
G01X11149Y7539D01*
G01X11163Y7551D01*
G01X11169Y7559D01*
G01X11174Y7566D01*
G01X11179Y7575D01*
G01X11183Y7583D01*
G01X11186Y7592D01*
G01X11188Y7601D01*
G01X11189Y7610D01*
G01X11189Y8488D01*
G01X11188Y8497D01*
G01X11186Y8506D01*
G01X11183Y8515D01*
G01X11179Y8523D01*
G01X11174Y8532D01*
G01X11169Y8539D01*
G01X11163Y8546D01*
G01X11156Y8553D01*
G01X11149Y8559D01*
G01X11142Y8564D01*
G01X11134Y8569D01*
G01X11125Y8573D01*
G01X11116Y8576D01*
G01X11107Y8578D01*
G01X11089Y8580D01*
G37*

%LPD*%
G54D17*
G01X1850Y5049D03*
G01X2850Y5049D03*
G01X3850Y5049D03*
G01X4850Y5049D03*
G01X5850Y5049D03*
G01X6850Y5049D03*
G01X7850Y5049D03*
G01X8850Y5049D03*
G01X9850Y5049D03*
G01X10850Y5049D03*
G01X11850Y5049D03*
G01X12850Y5049D03*
G01X13850Y5049D03*
G01X14850Y5049D03*
G01X14850Y8049D03*
G01X13850Y8049D03*
G01X12850Y8049D03*
G01X11850Y8049D03*
G01X10850Y8049D03*
G01X9850Y8049D03*
G01X8850Y8049D03*
G01X7850Y8049D03*
G01X6850Y8049D03*
G01X5850Y8049D03*
G01X4850Y8049D03*
G01X3850Y8049D03*
G01X2850Y8049D03*
G01X1850Y8049D03*
G54D18*
G01X1000Y950D03*
G01X2000Y950D03*
G01X3000Y950D03*
G01X4000Y950D03*
G01X5000Y950D03*
G01X6000Y950D03*
G01X7000Y950D03*
G01X8000Y950D03*
G54D19*
G01X12980Y1700D03*
G54D20*
G01X11019Y1700D03*
G54D19*
G01X15569Y1750D03*
G54D20*
G01X17530Y1750D03*
G54D18*
G01X8000Y11000D03*
G01X6950Y11000D03*
G01X6000Y11000D03*
G01X5000Y11050D03*
G01X4000Y11050D03*
G01X3000Y11050D03*
G01X2000Y11050D03*
G01X1000Y11050D03*
G01X9000Y950D03*
G01X9000Y11000D03*
G36*
G01X11353Y9646D02*
G01X10646Y9646D01*
G01X10646Y10353D01*
G01X11353Y10353D01*
G01X11353Y9646D01*
G37*
G54D22*
G01X10000Y10000D03*
G54D18*
G01X16000Y8450D03*
G01X17000Y8450D03*
G01X18000Y8450D03*
G01X16000Y9550D03*
G01X17000Y9550D03*
G01X18000Y9550D03*
G01X16000Y10650D03*
G01X17000Y10650D03*
G01X18000Y10650D03*
M00*
M02*
