;Layer: Drill PTH
;EasyEDA v6.4.3, 2020-09-28T11:24:18+02:00
;db6a862be2b4476fa8aa916105e7e4dd,b5629027151c44a780a78c7d9cec2130,10
;Gerber Generator version 0.2
M48
INCH,LZ,00.0000
;Holesize 1 = 0.032 INCH
T01C0.032
;Holesize 2 = 0.032 INCH
T02C0.032
;Holesize 3 = 0.039 INCH
T03C0.039
;Holesize 4 = 0.046 INCH
T04C0.046
%
G05
G90
T01
X+011000Y+010000
X+010000Y+010000
T02
X+001850Y+005049
X+002850Y+005049
X+003850Y+005049
X+004850Y+005049
X+005850Y+005049
X+006850Y+005049
X+007850Y+005049
X+008850Y+005049
X+009850Y+005049
X+010850Y+005049
X+011850Y+005049
X+012850Y+005049
X+013850Y+005049
X+014850Y+005049
X+014850Y+008049
X+013850Y+008049
X+012850Y+008049
X+011850Y+008049
X+010850Y+008049
X+009850Y+008049
X+008850Y+008049
X+007850Y+008049
X+006850Y+008049
X+005850Y+008049
X+004850Y+008049
X+003850Y+008049
X+002850Y+008049
X+001850Y+008049
T03
X+001000Y+000950
X+002000Y+000950
X+003000Y+000950
X+004000Y+000950
X+005000Y+000950
X+006000Y+000950
X+007000Y+000950
X+008000Y+000950
X+008000Y+011000
X+006950Y+011000
X+006000Y+011000
X+005000Y+011050
X+004000Y+011050
X+003000Y+011050
X+002000Y+011050
X+001000Y+011050
X+009000Y+000950
X+009000Y+011000
X+016000Y+008450
X+017000Y+008450
X+018000Y+008450
X+016000Y+009550
X+017000Y+009550
X+018000Y+009550
X+016000Y+010650
X+017000Y+010650
X+018000Y+010650
T04
X+012980Y+001700
X+011019Y+001700
X+015569Y+001750
X+017530Y+001750
M30
