G04 Layer: BottomSolderMaskLayer*
G04 EasyEDA v6.4.3, 2020-09-28T11:24:18+02:00*
G04 db6a862be2b4476fa8aa916105e7e4dd,b5629027151c44a780a78c7d9cec2130,10*
G04 Gerber Generator version 0.2*
G04 Scale: 100 percent, Rotated: No, Reflected: No *
G04 Dimensions in inches *
G04 leading zeros omitted , absolute positions ,2 integer and 4 decimal *
%FSLAX24Y24*%
%MOIN*%
G90*
G70D02*

%ADD25R,0.055700X0.093900*%
%ADD26C,0.068000*%
%ADD27R,0.088000X0.088000*%
%ADD28C,0.088000*%
%ADD31C,0.078866*%

%LPD*%
G54D25*
G01X1850Y5049D03*
G01X2850Y5049D03*
G01X3850Y5049D03*
G01X4850Y5049D03*
G01X5850Y5049D03*
G01X6850Y5049D03*
G01X7850Y5049D03*
G01X8850Y5049D03*
G01X9850Y5049D03*
G01X10850Y5049D03*
G01X11850Y5049D03*
G01X12850Y5049D03*
G01X13850Y5049D03*
G01X14850Y5049D03*
G01X14850Y8049D03*
G01X13850Y8049D03*
G01X12850Y8049D03*
G01X11850Y8049D03*
G01X10850Y8049D03*
G01X9850Y8049D03*
G01X8850Y8049D03*
G01X7850Y8049D03*
G01X6850Y8049D03*
G01X5850Y8049D03*
G01X4850Y8049D03*
G01X3850Y8049D03*
G01X2850Y8049D03*
G01X1850Y8049D03*
G54D26*
G01X1000Y950D03*
G01X2000Y950D03*
G01X3000Y950D03*
G01X4000Y950D03*
G01X5000Y950D03*
G01X6000Y950D03*
G01X7000Y950D03*
G01X8000Y950D03*
G36*
G01X12539Y1259D02*
G01X12539Y2140D01*
G01X13419Y2140D01*
G01X13419Y1259D01*
G01X12539Y1259D01*
G37*
G54D28*
G01X11019Y1700D03*
G54D27*
G01X15569Y1750D03*
G54D28*
G01X17530Y1750D03*
G54D26*
G01X8000Y11000D03*
G01X6950Y11000D03*
G01X6000Y11000D03*
G01X5000Y11050D03*
G01X4000Y11050D03*
G01X3000Y11050D03*
G01X2000Y11050D03*
G01X1000Y11050D03*
G01X9000Y950D03*
G01X9000Y11000D03*
G36*
G01X10606Y9605D02*
G01X10606Y10394D01*
G01X11393Y10394D01*
G01X11393Y9605D01*
G01X10606Y9605D01*
G37*
G54D31*
G01X10000Y10000D03*
G54D26*
G01X16000Y8450D03*
G01X17000Y8450D03*
G01X18000Y8450D03*
G01X16000Y9550D03*
G01X17000Y9550D03*
G01X18000Y9550D03*
G01X16000Y10650D03*
G01X17000Y10650D03*
G01X18000Y10650D03*
M00*
M02*
